<svg width="34" height="34" viewBox="0 0 34 34" fill="none" xmlns="http://www.w3.org/2000/svg">
<g clip-path="url(#clip0_3007_2860)">
<path d="M26.3964 4.09938V9.53479C26.3964 9.90221 26.0986 10.2 25.7312 10.2C25.3638 10.2 25.066 9.90221 25.066 9.53479V4.09938C25.066 2.57257 23.833 1.33045 22.3177 1.33045H11.6822C10.1668 1.33045 8.9339 2.57257 8.9339 4.09938V9.53479C8.9339 9.90221 8.63613 10.2 8.26871 10.2C7.90128 10.2 7.60352 9.90221 7.60352 9.53479V4.09938C7.60352 1.83898 9.4332 0 11.6823 0H22.3177C24.5667 6.64061e-05 26.3964 1.83898 26.3964 4.09938Z" fill="#651100"/>
<path d="M4.80037 8.34668H29.1997C31.8397 8.34668 34.0001 10.5198 34.0001 13.1759V29.1708C34 31.8269 31.8396 34.0001 29.1996 34.0001H4.80037C2.16039 34.0001 0 31.8269 0 29.1708V13.1759C0 10.5198 2.16039 8.34668 4.80037 8.34668Z" fill="#DC2C13"/>
<path d="M33.9999 21.1729V29.1703C33.9999 31.8264 31.8395 33.9995 29.1996 33.9995H4.80037C2.16039 33.9996 0 31.8265 0 29.1703V21.1729H33.9999Z" fill="#B21100"/>
<path d="M10.8757 18.5922H14.4342V15.0125C14.4342 14.4744 14.8718 14.0342 15.4067 14.0342H18.5927C19.1277 14.0342 19.5651 14.4744 19.5651 15.0125V18.5922H23.1236C23.6584 18.5922 24.0958 19.0324 24.0958 19.5706V22.7758C24.0958 23.314 23.6584 23.7542 23.1236 23.7542H19.5652V27.3339C19.5652 27.872 19.1278 28.3122 18.5928 28.3122H15.4067C14.8718 28.3122 14.4343 27.872 14.4343 27.3339V23.7542H10.8758C10.3411 23.7542 9.90332 23.314 9.90332 22.7758V19.5706C9.90319 19.0324 10.341 18.5922 10.8757 18.5922Z" fill="#F9EC86"/>
<path d="M24.0959 21.1729V22.7754C24.0959 23.3136 23.6585 23.7539 23.1238 23.7539H19.5653V27.3335C19.5653 27.8716 19.1279 28.3118 18.5928 28.3118H15.4067C14.8718 28.3118 14.4343 27.8716 14.4343 27.3335V23.7539H10.8758C10.3411 23.7539 9.90332 23.3137 9.90332 22.7754V21.1729H24.0959Z" fill="#FFE252"/>
</g>
<defs>
<clipPath id="clip0_3007_2860">
<rect width="34" height="34" fill="white"/>
</clipPath>
</defs>
</svg>
