<svg width="65" height="62" viewBox="0 0 65 62" fill="none" xmlns="http://www.w3.org/2000/svg">
<path fill-rule="evenodd" clip-rule="evenodd" d="M48.8456 37.5042C44.9556 37.5042 41.8021 40.6987 41.8021 44.6393C41.8021 48.5798 44.9556 51.7743 48.8456 51.7743C52.7356 51.7743 55.889 48.5798 55.889 44.6393C55.889 40.6987 52.7356 37.5042 48.8456 37.5042ZM36.583 44.6393C36.583 37.7788 42.0731 32.2173 48.8456 32.2173C55.618 32.2173 61.1081 37.7788 61.1081 44.6393C61.1081 51.4997 55.618 57.0612 48.8456 57.0612C42.0731 57.0612 36.583 51.4997 36.583 44.6393Z" fill="#1872F6"/>
<path fill-rule="evenodd" clip-rule="evenodd" d="M55.0985 50.7447C56.0718 49.7933 57.4895 49.6822 58.2651 50.4964L64.5089 57.0513C65.2844 57.8656 65.1242 59.2968 64.1509 60.2481C63.1776 61.1995 61.7599 61.3106 60.9843 60.4964L54.7406 53.9415C53.965 53.1272 54.1253 51.696 55.0985 50.7447Z" fill="#1872F6"/>
<path fill-rule="evenodd" clip-rule="evenodd" d="M4.3623 23.707C5.65115 23.8071 7.12112 23.8623 8.55927 23.7899V44.3967C8.55927 45.2103 8.87965 45.9925 9.45291 46.5707C10.0265 47.1492 10.8064 47.4758 11.6215 47.4758H20.4507V33.4458C20.4507 32.0175 21.0697 30.6478 22.1716 29.6379C23.2736 28.6279 24.7681 28.0605 26.3264 28.0605H32.2022C33.7605 28.0605 35.255 28.6279 36.3569 29.6379C37.2117 30.4213 37.776 31.4213 37.986 32.4971C34.7213 35.4958 32.6709 39.8266 32.6709 44.6425C32.6709 47.1801 33.2402 49.583 34.2565 51.7274H11.6215C9.6992 51.7274 7.8538 50.9573 6.49173 49.5836C5.12936 48.2095 4.3623 46.3439 4.3623 44.3967V23.707ZM50.8087 23.7902C52.247 23.8624 53.7169 23.8066 55.0057 23.7065V29.48C53.6854 28.9294 52.2773 28.5506 50.8087 28.3712V23.7902Z" fill="black"/>
<path d="M58.4228 18.7778L53.4162 1.28352C53.3102 0.913655 53.0865 0.588312 52.7788 0.356726C52.4711 0.12514 52.0962 -8.55264e-05 51.7109 4.38254e-08H39.75L41.1539 16.8304C41.1751 17.101 41.2607 17.3627 41.4036 17.5936C41.5465 17.8246 41.7426 18.0181 41.9755 18.1582C43.1281 18.8457 45.3802 20.1144 47.1387 20.6544C50.1415 21.5779 54.5274 21.2445 57.0278 20.9377C57.2709 20.9063 57.5042 20.8223 57.7114 20.6917C57.9186 20.561 58.0948 20.3868 58.2276 20.1811C58.3604 19.9755 58.4467 19.7433 58.4804 19.501C58.5141 19.2586 58.4945 19.0118 58.4228 18.7778Z" fill="#1872F6"/>
<path d="M35.5949 20.7994C37.2752 20.2794 39.4052 19.0938 40.5944 18.3867C40.8716 18.2209 41.0965 17.9798 41.2431 17.6912C41.3897 17.4025 41.4519 17.0781 41.4227 16.7554L40.0324 0H19.3244L17.934 16.7554C17.9043 17.0786 17.9663 17.4036 18.1129 17.6928C18.2595 17.9821 18.4847 18.2237 18.7624 18.3896C19.9516 19.0938 22.0815 20.2794 23.7618 20.7994C28.1785 22.1662 31.1782 22.1662 35.5949 20.7994Z" fill="#5897F4"/>
<path d="M5.93837 1.28361L0.931311 18.7821C0.860636 19.0157 0.841742 19.2619 0.87594 19.5036C0.910139 19.7452 0.996611 19.9766 1.12935 20.1815C1.26209 20.3865 1.43793 20.5602 1.64464 20.6905C1.85136 20.8208 2.084 20.9046 2.32643 20.9362C4.82405 21.246 9.21336 21.5765 12.2164 20.6558C13.9751 20.1158 16.2303 18.847 17.3801 18.1624C17.6134 18.022 17.8098 17.828 17.9527 17.5965C18.0956 17.365 18.1811 17.1027 18.2018 16.8316L19.6058 4.38285e-08H7.64385C7.25848 -8.55324e-05 6.88356 0.125148 6.57585 0.356751C6.26813 0.588353 6.04435 0.913718 5.93837 1.28361Z" fill="#1872F6"/>
</svg>
