<svg width="28" height="28" viewBox="0 0 28 28" fill="none" xmlns="http://www.w3.org/2000/svg">
<path d="M9.78249 23.3333V22.1667H13.4167V17.787C12.3892 17.6034 11.4901 17.1737 10.7193 16.4978C9.94854 15.8219 9.41771 14.9847 9.12682 13.986C7.89327 13.8413 6.84132 13.3358 5.97099 12.4693C5.10143 11.6021 4.66666 10.5568 4.66666 9.33333V8.16666C4.66666 7.854 4.78293 7.58139 5.01549 7.34883C5.24882 7.11627 5.52143 7 5.83332 7H8.92966V4.66666H19.0703V7H22.1667C22.4793 7 22.7519 7.11627 22.9845 7.34883C23.217 7.58216 23.3333 7.85478 23.3333 8.16666V9.33333C23.3333 10.5568 22.8985 11.6021 22.029 12.4693C21.1587 13.3358 20.1067 13.8413 18.8732 13.986C18.583 14.9854 18.0526 15.8227 17.2818 16.4978C16.5103 17.1737 15.6108 17.6034 14.5833 17.787V22.1667H18.2175V23.3333H9.78249ZM8.92966 12.7342V8.16666H5.83332V9.33333C5.83332 10.2216 6.12966 10.9849 6.72232 11.6235C7.31421 12.2613 8.04999 12.6315 8.92966 12.7342ZM14 16.6483C15.0772 16.6483 15.9895 16.2746 16.737 15.5272C17.4852 14.7789 17.8593 13.8666 17.8593 12.7902V5.83333H10.1407V12.789C10.1407 13.8654 10.5148 14.7778 11.263 15.526C12.0104 16.2734 12.9228 16.6472 14 16.6472M19.0703 12.7342C19.9492 12.6315 20.685 12.2609 21.2777 11.6223C21.8703 10.9846 22.1667 10.2216 22.1667 9.33333V8.16666H19.0703V12.7342Z" fill="#FBCA00"/>
</svg>
