<svg width="14" height="14" viewBox="0 0 14 14" fill="none" xmlns="http://www.w3.org/2000/svg">
<path d="M11.6663 2.9165C11.6663 3.883 9.577 4.6665 6.99967 4.6665C4.42235 4.6665 2.33301 3.883 2.33301 2.9165M11.6663 2.9165C11.6663 1.95001 9.577 1.1665 6.99967 1.1665C4.42235 1.1665 2.33301 1.95001 2.33301 2.9165M11.6663 2.9165V11.0832C11.6663 12.0497 9.577 12.8332 6.99967 12.8332C4.42235 12.8332 2.33301 12.0497 2.33301 11.0832V2.9165M11.6663 5.63869C11.6663 6.60519 9.577 7.38869 6.99967 7.38869C4.42235 7.38869 2.33301 6.60519 2.33301 5.63869M11.6663 8.359C11.6663 9.3255 9.577 10.109 6.99967 10.109C4.42235 10.109 2.33301 9.3255 2.33301 8.359" stroke="white" stroke-width="1.5" stroke-linecap="round" stroke-linejoin="round"/>
</svg>
