<svg width="32" height="32" viewBox="0 0 32 32" fill="none" xmlns="http://www.w3.org/2000/svg">
<path d="M26.6663 6.6665C26.6663 8.87564 21.8907 10.6665 15.9997 10.6665C10.1086 10.6665 5.33301 8.87564 5.33301 6.6665M26.6663 6.6665C26.6663 4.45736 21.8907 2.6665 15.9997 2.6665C10.1086 2.6665 5.33301 4.45736 5.33301 6.6665M26.6663 6.6665V25.3332C26.6663 27.5423 21.8907 29.3332 15.9997 29.3332C10.1086 29.3332 5.33301 27.5423 5.33301 25.3332V6.6665M26.6663 12.8886C26.6663 15.0978 21.8907 16.8886 15.9997 16.8886C10.1086 16.8886 5.33301 15.0978 5.33301 12.8886M26.6663 19.1065C26.6663 21.3156 21.8907 23.1065 15.9997 23.1065C10.1086 23.1065 5.33301 21.3156 5.33301 19.1065" stroke="#1872F6" stroke-width="2" stroke-linecap="round" stroke-linejoin="round"/>
</svg>
