<svg width="110" height="110" viewBox="0 0 110 110" fill="none" xmlns="http://www.w3.org/2000/svg">
<g clip-path="url(#clip0_2639_2122)">
<path d="M55 110C85.3757 110 110 85.3757 110 55C110 24.6243 85.3757 0 55 0C24.6243 0 0 24.6243 0 55C0 85.3757 24.6243 110 55 110Z" fill="#69F0AE"/>
<path d="M77.5879 38.7521C76.6792 37.8522 75.206 37.8522 74.2971 38.7521L46.4191 66.3605L35.7033 55.7484C34.7946 54.8484 33.3214 54.8485 32.4125 55.7484C31.5038 56.6483 31.5038 58.1073 32.4125 59.0072L44.7738 71.2486C45.6822 72.1485 47.1565 72.1479 48.0645 71.2486L77.5879 42.0111C78.4966 41.1112 78.4966 39.6521 77.5879 38.7521Z" fill="white" stroke="white" stroke-width="4.88889"/>
</g>
<defs>
<clipPath id="clip0_2639_2122">
<rect width="110" height="110" fill="white"/>
</clipPath>
</defs>
</svg>
