<svg width="28" height="28" viewBox="0 0 28 28" fill="none" xmlns="http://www.w3.org/2000/svg">
<circle cx="14" cy="14" r="13" fill="#75869C" stroke="white" stroke-width="2"/>
<path fill-rule="evenodd" clip-rule="evenodd" d="M12.5433 15.9074L12.9691 13.9182C13.0311 13.6418 13.1708 13.3888 13.3716 13.189L17.2625 9.33321C17.657 8.93128 18.1927 8.699 18.7558 8.68571C19.1805 8.67963 19.59 8.84343 19.8933 9.14071C20.5561 9.92382 20.4705 11.0933 19.7008 11.7715L15.81 15.6624C15.6102 15.8632 15.3572 16.0029 15.0808 16.0649L13.0916 16.4907H12.9808C12.8354 16.4963 12.6965 16.4301 12.6092 16.3137C12.5219 16.1973 12.4972 16.0454 12.5433 15.9074ZM13.9899 13.8131C13.9082 13.8923 13.8514 13.9937 13.8266 14.1048L13.5408 15.464L14.8999 15.1723C15.011 15.1475 15.1124 15.0907 15.1916 15.009L19.0824 11.1181C19.5087 10.7769 19.5933 10.1617 19.2749 9.71813C19.1356 9.58496 18.9484 9.51348 18.7558 9.5198C18.4236 9.53313 18.1097 9.67543 17.8808 9.91646L13.9899 13.8131Z" fill="white"/>
<path d="M19.6137 13.3758C19.3734 13.379 19.1794 13.573 19.1762 13.8133V17.1325C19.184 17.6017 19.0031 18.0543 18.6741 18.3888C18.345 18.7234 17.8955 18.9117 17.4262 18.9117H11.8671C10.8972 18.8927 10.12 18.1026 10.1171 17.1325V11.5967C10.133 10.6255 10.9249 9.84655 11.8962 9.84668H15.2154C15.457 9.84668 15.6529 9.6508 15.6529 9.40918C15.6529 9.16756 15.457 8.97168 15.2154 8.97168H11.8671C10.4125 8.97159 9.22887 10.1422 9.21289 11.5967V17.1325C9.21289 18.5984 10.4012 19.7867 11.8671 19.7867H17.4029C18.8665 19.7835 20.0512 18.5961 20.0512 17.1325V13.8133C20.0481 13.573 19.854 13.379 19.6137 13.3758Z" fill="white"/>
</svg>
