<svg width="24" height="25" viewBox="0 0 24 25" fill="none" xmlns="http://www.w3.org/2000/svg">
<path d="M20.4534 23.2042H3.54442C2.08572 23.2042 0.796507 22.4801 0.0195312 21.3818C0.124528 23.2168 1.65748 24.6834 3.54442 24.6834H20.4534C22.3418 24.6834 23.8748 23.219 23.979 21.3818C23.2021 22.4801 21.9128 23.2042 20.4534 23.2042Z" fill="#1872F6"/>
<path d="M20.4541 1.01694H19.9426V0.739594C19.9426 0.331338 19.6074 0 19.1927 0C18.7787 0 18.4427 0.331338 18.4427 0.739594V1.01694H17.065V0.739594C17.065 0.331338 16.729 0 16.315 0C15.901 0 15.565 0.331338 15.565 0.739594V1.01694H14.1873V0.739594C14.1873 0.331338 13.8521 0 13.4373 0C13.0233 0 12.6874 0.331338 12.6874 0.739594V1.01694H11.3096V0.739594C11.3096 0.331338 10.9737 0 10.5597 0C10.1457 0 9.80969 0.331338 9.80969 0.739594V1.01694H8.43199V0.739594C8.43199 0.331338 8.096 0 7.68201 0C7.26802 0 6.93203 0.331338 6.93203 0.739594V1.01694H5.55508V0.739594C5.55508 0.331338 5.21909 0 4.8051 0C4.39111 0 4.05512 0.331338 4.05512 0.739594V1.01694H3.54364C1.58995 1.01694 0 2.58488 0 4.51226V18.9691C0 20.8957 1.58995 22.4652 3.54514 22.4652H20.4541C22.4085 22.4652 24 20.8972 24 18.9691V4.51226C23.9992 2.58488 22.4093 1.01694 20.4541 1.01694ZM18.8192 0.739594C18.8192 0.535466 18.9872 0.369797 19.1942 0.369797C19.4011 0.369797 19.5691 0.535466 19.5691 0.739594V5.53364C19.5691 5.73777 19.4011 5.90344 19.1942 5.90344C18.9872 5.90344 18.8192 5.73777 18.8192 5.53364V0.739594ZM15.9415 0.739594C15.9415 0.535466 16.1102 0.369797 16.3165 0.369797C16.5235 0.369797 16.6915 0.535466 16.6915 0.739594V5.53364C16.6915 5.73777 16.5235 5.90344 16.3165 5.90344C16.1102 5.90344 15.9415 5.73777 15.9415 5.53364V0.739594ZM13.0638 0.739594C13.0638 0.535466 13.2318 0.369797 13.4388 0.369797C13.6458 0.369797 13.8138 0.535466 13.8138 0.739594V5.53364C13.8138 5.73777 13.6458 5.90344 13.4388 5.90344C13.2318 5.90344 13.0638 5.73777 13.0638 5.53364V0.739594ZM10.1862 0.739594C10.1862 0.535466 10.3542 0.369797 10.5612 0.369797C10.7682 0.369797 10.9362 0.535466 10.9362 0.739594V5.53364C10.9362 5.73777 10.7682 5.90344 10.5612 5.90344C10.3542 5.90344 10.1862 5.73777 10.1862 5.53364V0.739594ZM7.30852 0.739594C7.30852 0.535466 7.47652 0.369797 7.68351 0.369797C7.8905 0.369797 8.0585 0.535466 8.0585 0.739594V5.53364C8.0585 5.73777 7.8905 5.90344 7.68351 5.90344C7.47652 5.90344 7.30852 5.73777 7.30852 5.53364V0.739594ZM4.43086 0.739594C4.43086 0.535466 4.59886 0.369797 4.80585 0.369797C5.01284 0.369797 5.18084 0.535466 5.18084 0.739594V5.53364C5.18084 5.73777 5.01284 5.90344 4.80585 5.90344C4.59886 5.90344 4.43086 5.73777 4.43086 5.53364V0.739594ZM22.1933 18.9691C22.1933 19.9136 21.4133 20.6827 20.4549 20.6827H3.54514C2.58667 20.6827 1.80669 19.9136 1.80669 18.9691V4.51226C1.80669 3.56706 2.58667 2.79788 3.54514 2.79788H4.05662V4.65648C3.80238 4.86801 3.63664 5.18085 3.63664 5.53438C3.63664 6.17043 4.16087 6.68815 4.8066 6.68815C5.45233 6.68815 5.97656 6.17117 5.97656 5.53438C5.97656 5.18085 5.81082 4.86875 5.55658 4.65648V2.79788H6.93428V4.65648C6.68004 4.86801 6.5143 5.18085 6.5143 5.53438C6.5143 6.17043 7.03853 6.68815 7.68426 6.68815C8.32999 6.68815 8.85422 6.17117 8.85422 5.53438C8.85422 5.18085 8.68848 4.86875 8.43424 4.65648V2.79788H9.81194V4.65648C9.5577 4.86801 9.39196 5.18085 9.39196 5.53438C9.39196 6.17043 9.91619 6.68815 10.5619 6.68815C11.2077 6.68815 11.7319 6.17117 11.7319 5.53438C11.7319 5.18085 11.5661 4.86875 11.3119 4.65648V2.79788H12.6896V4.65648C12.4354 4.86801 12.2696 5.18085 12.2696 5.53438C12.2696 6.17043 12.7939 6.68815 13.4396 6.68815C14.0853 6.68815 14.6103 6.17117 14.6103 5.53438C14.6103 5.18085 14.4438 4.86875 14.1896 4.65648V2.79788H15.5673V4.65648C15.313 4.86801 15.1473 5.18085 15.1473 5.53438C15.1473 6.17043 15.6715 6.68815 16.3172 6.68815C16.963 6.68815 17.4872 6.17117 17.4872 5.53438C17.4872 5.18085 17.3215 4.86875 17.0672 4.65648V2.79788H18.4449V4.65648C18.1907 4.86801 18.0249 5.18085 18.0249 5.53438C18.0249 6.17043 18.5484 6.68815 19.1949 6.68815C19.8414 6.68815 20.3656 6.17117 20.3656 5.53438C20.3656 5.18085 20.1999 4.86875 19.9449 4.65648V2.79788H20.4564C21.4141 2.79788 22.1941 3.56706 22.1941 4.51226L22.1933 18.9691Z" fill="#1872F6"/>
<path d="M16.5179 9.84302L11.1076 15.6518L7.32393 12.8894C6.82444 12.524 6.12097 12.6276 5.75048 13.1202C5.38074 13.6127 5.48499 14.3072 5.98522 14.6726L10.5818 18.0296C10.7828 18.176 11.0168 18.2478 11.2508 18.2478C11.556 18.2478 11.8598 18.1257 12.0795 17.8891L18.1746 11.3444C18.5961 10.8932 18.5653 10.1914 18.1071 9.77719C17.6511 9.36302 16.9394 9.39112 16.5179 9.84302Z" fill="#1872F6"/>
</svg>
