<svg width="24" height="24" viewBox="0 0 24 24" fill="none" xmlns="http://www.w3.org/2000/svg">
<g clip-path="url(#clip0_2210_2547)">
<path d="M19 11.75H19.0002C19.3156 11.7499 19.6193 11.869 19.8506 12.0834C20.0784 12.2947 20.2193 12.5832 20.246 12.8924L20.25 13.0125V19V19.0002C20.2501 19.3156 20.131 19.6193 19.9166 19.8506C19.7053 20.0784 19.4168 20.2193 19.1076 20.246L18.9875 20.25H15H14.9998C14.6844 20.2501 14.3807 20.131 14.1494 19.9166C13.9216 19.7053 13.7807 19.4168 13.754 19.1075L13.75 18.9875V13V12.9998C13.7499 12.6844 13.869 12.3807 14.0834 12.1494C14.2947 11.9216 14.5832 11.7807 14.8925 11.754L15.0125 11.75H19ZM9 15.75C9.33152 15.75 9.64946 15.8817 9.88388 16.1161C10.1183 16.3505 10.25 16.6685 10.25 17V19C10.25 19.3315 10.1183 19.6495 9.88388 19.8839C9.64946 20.1183 9.33152 20.25 9 20.25H5C4.66848 20.25 4.35054 20.1183 4.11612 19.8839C3.8817 19.6495 3.75 19.3315 3.75 19V17C3.75 16.6685 3.8817 16.3505 4.11612 16.1161C4.35054 15.8817 4.66848 15.75 5 15.75H9ZM9 3.75C9.33152 3.75 9.64946 3.8817 9.88388 4.11612C10.1183 4.35054 10.25 4.66848 10.25 5V11C10.25 11.3315 10.1183 11.6495 9.88388 11.8839C9.64946 12.1183 9.33152 12.25 9 12.25H5C4.66848 12.25 4.35054 12.1183 4.11612 11.8839C3.8817 11.6495 3.75 11.3315 3.75 11V5C3.75 4.66848 3.8817 4.35054 4.11612 4.11612C4.35054 3.8817 4.66848 3.75 5 3.75H9ZM19 3.75C19.3315 3.75 19.6495 3.8817 19.8839 4.11612C20.1183 4.35054 20.25 4.66848 20.25 5V7C20.25 7.33152 20.1183 7.64946 19.8839 7.88388C19.6495 8.1183 19.3315 8.25 19 8.25H15C14.6685 8.25 14.3505 8.1183 14.1161 7.88388C13.8817 7.64946 13.75 7.33152 13.75 7V5C13.75 4.66848 13.8817 4.35054 14.1161 4.11612C14.3505 3.8817 14.6685 3.75 15 3.75H19Z" stroke="#1872F6" stroke-width="1.5"/>
</g>
<defs>
<clipPath id="clip0_2210_2547">
<rect width="24" height="24" fill="white"/>
</clipPath>
</defs>
</svg>
