<svg width="24" height="24" viewBox="0 0 24 24" fill="none" xmlns="http://www.w3.org/2000/svg">
<path d="M21 10C21 17 12 23 12 23C12 23 3 17 3 10C3 7.61305 3.94821 5.32387 5.63604 3.63604C7.32387 1.94821 9.61305 1 12 1C14.3869 1 16.6761 1.94821 18.364 3.63604C20.0518 5.32387 21 7.61305 21 10Z" fill="#1C293E"/>
<mask id="mask0_2210_2537" style="mask-type:alpha" maskUnits="userSpaceOnUse" x="3" y="1" width="18" height="22">
<path d="M21 10C21 17 12 23 12 23C12 23 3 17 3 10C3 7.61305 3.94821 5.32387 5.63604 3.63604C7.32387 1.94821 9.61305 1 12 1C14.3869 1 16.6761 1.94821 18.364 3.63604C20.0518 5.32387 21 7.61305 21 10Z" fill="#1C293E"/>
</mask>
<g mask="url(#mask0_2210_2537)">
<path fill-rule="evenodd" clip-rule="evenodd" d="M19.4289 8.85047C19.9021 8.87379 20.3855 8.85569 20.8093 8.82324V16.3803C20.8093 17.1427 20.1913 17.7607 19.4289 17.7607H6.53995C5.90769 17.7607 5.30072 17.5112 4.85273 17.0662C4.40463 16.621 4.15234 16.0165 4.15234 15.3857V8.82346C4.57629 8.8559 5.05977 8.87376 5.53276 8.85026V15.3857C5.53276 15.6493 5.63813 15.9027 5.82669 16.09C6.01534 16.2774 6.27185 16.3833 6.53995 16.3833H9.44393V11.8377C9.44393 11.3749 9.64754 10.9311 10.01 10.6039C10.3724 10.2767 10.864 10.0929 11.3765 10.0929H13.3091C13.8216 10.0929 14.3132 10.2767 14.6756 10.6039C15.0381 10.9311 15.2417 11.3749 15.2417 11.8377L15.271 16.3833H19.4289V8.85047Z" fill="white"/>
<path d="M21.9332 7.08387L20.2865 1.41587C20.2516 1.29603 20.178 1.19062 20.0768 1.11559C19.9756 1.04056 19.8523 0.999986 19.7256 1.00001H15.7915L16.2533 6.45293C16.2603 6.54061 16.2884 6.62538 16.3354 6.70021C16.3824 6.77503 16.4469 6.83774 16.5235 6.88312C16.9026 7.10586 17.6434 7.51693 18.2218 7.69188C19.2094 7.9911 20.652 7.88307 21.4744 7.78365C21.5543 7.77349 21.631 7.74629 21.6992 7.70395C21.7674 7.66162 21.8253 7.60517 21.869 7.53854C21.9127 7.47191 21.9411 7.3967 21.9521 7.31818C21.9632 7.23965 21.9568 7.15969 21.9332 7.08387Z" fill="white"/>
<path d="M14.4248 7.73885C14.9775 7.57038 15.678 7.18627 16.0692 6.95715C16.1604 6.90345 16.2343 6.82533 16.2825 6.73181C16.3308 6.63829 16.3512 6.53318 16.3416 6.42863L15.8843 1.00001H9.07332L8.61601 6.42863C8.60622 6.53334 8.62661 6.63865 8.67483 6.73236C8.72305 6.82607 8.79712 6.90434 8.88845 6.95811C9.2796 7.18627 9.98016 7.57038 10.5328 7.73885C11.9855 8.18169 12.9721 8.18169 14.4248 7.73885Z" fill="#5897F4"/>
<path d="M4.67052 1.41588L3.02366 7.08524C3.00041 7.16094 2.9942 7.24071 3.00545 7.31901C3.0167 7.3973 3.04514 7.47226 3.0888 7.53866C3.13246 7.60507 3.19029 7.66133 3.25828 7.70355C3.32627 7.74577 3.40279 7.77293 3.48253 7.78315C4.30401 7.88354 5.74769 7.99061 6.73542 7.69233C7.31386 7.51737 8.05563 7.10627 8.43381 6.88447C8.51055 6.83899 8.57512 6.77613 8.62213 6.70112C8.66915 6.62612 8.69724 6.54115 8.70407 6.45329L9.16585 1H5.23147C5.10472 0.999972 4.9814 1.04055 4.88019 1.11558C4.77898 1.19062 4.70538 1.29604 4.67052 1.41588Z" fill="white"/>
</g>
</svg>
