<svg width="13" height="12" viewBox="0 0 13 12" fill="none" xmlns="http://www.w3.org/2000/svg">
<path d="M2.78506 5.5V7.5C2.78506 9.1499 2.78506 9.97485 3.29763 10.4874C3.81019 11 4.63515 11 6.28506 11H7.28506C8.93496 11 9.75991 11 10.2725 10.4874C10.7851 9.97485 10.7851 9.1499 10.7851 7.5V5.5" stroke="white" stroke-linecap="round" stroke-linejoin="round"/>
<path d="M2.28506 4.5C2.28506 4.12615 2.28506 3.93923 2.38554 3.8C2.45137 3.70879 2.54605 3.63304 2.66006 3.58038C2.8341 3.5 3.06775 3.5 3.53506 3.5H10.0351C10.5024 3.5 10.736 3.5 10.9101 3.58038C11.0241 3.63304 11.1188 3.70879 11.1846 3.8C11.2851 3.93923 11.2851 4.12615 11.2851 4.5C11.2851 4.87385 11.2851 5.06075 11.1846 5.2C11.1188 5.2912 11.0241 5.36695 10.9101 5.4196C10.736 5.5 10.5024 5.5 10.0351 5.5H3.53506C3.06775 5.5 2.8341 5.5 2.66006 5.4196C2.54605 5.36695 2.45137 5.2912 2.38554 5.2C2.28506 5.06075 2.28506 4.87385 2.28506 4.5Z" stroke="white" stroke-linejoin="round"/>
<path d="M3.78506 1.89286C3.78506 1.39975 4.18481 1 4.67792 1H4.85649C5.92161 1 6.78506 1.86345 6.78506 2.92857V3.5H5.39221C4.5046 3.5 3.78506 2.78046 3.78506 1.89286Z" stroke="white" stroke-width="1.5" stroke-linejoin="round"/>
<path d="M9.78506 1.89286C9.78506 1.39975 9.38531 1 8.89221 1H8.71361C7.64851 1 6.78506 1.86345 6.78506 2.92857V3.5H8.17791C9.06551 3.5 9.78506 2.78046 9.78506 1.89286Z" stroke="white" stroke-linejoin="round"/>
<path d="M6.78506 5.5V11" stroke="white" stroke-linecap="round" stroke-linejoin="round"/>
</svg>
