<svg width="9" height="10" viewBox="0 0 9 10" fill="none" xmlns="http://www.w3.org/2000/svg">
<path fill-rule="evenodd" clip-rule="evenodd" d="M7.60647 4.59209C7.82551 4.60477 8.04935 4.59498 8.24562 4.57739V8.78688C8.24562 9.13987 7.95946 9.42603 7.60647 9.42603H1.6387C1.34595 9.42603 1.06492 9.29067 0.857491 9.04921C0.650017 8.80769 0.533203 8.47977 0.533203 8.1375V4.57742C0.729466 4.59504 0.953327 4.60475 1.17235 4.59204V8.1375C1.17235 8.28051 1.22114 8.418 1.30845 8.51963C1.3958 8.62131 1.51456 8.67873 1.6387 8.67873H2.98328V6.21264C2.98328 5.96159 3.07755 5.72082 3.24536 5.5433C3.41317 5.36578 3.64077 5.26606 3.87809 5.26606H4.7729C5.01022 5.26606 5.23782 5.36578 5.40563 5.5433C5.57344 5.72082 5.66771 5.96159 5.66771 6.21264L5.68129 8.67873H7.60647V4.59209Z" fill="white"/>
<path d="M8.76631 3.63388L8.00387 0.558867C7.98773 0.493855 7.95365 0.436668 7.90679 0.395962C7.85994 0.355255 7.80285 0.333244 7.74417 0.333259H5.92266L6.13645 3.29158C6.13968 3.33915 6.15272 3.38514 6.17448 3.42573C6.19625 3.46633 6.22611 3.50035 6.26158 3.52497C6.43711 3.64581 6.78008 3.86882 7.04788 3.96373C7.50517 4.12607 8.1731 4.06746 8.55387 4.01352C8.59089 4.00801 8.62642 3.99325 8.65798 3.97029C8.68954 3.94732 8.71637 3.91669 8.73659 3.88054C8.75682 3.84439 8.76996 3.8036 8.77509 3.76099C8.78023 3.71839 8.77723 3.67501 8.76631 3.63388Z" fill="#1872F6"/>
<path d="M5.28985 3.98922C5.54574 3.89782 5.87011 3.68943 6.05121 3.56513C6.09343 3.536 6.12768 3.49361 6.15 3.44288C6.17232 3.39214 6.1818 3.33512 6.17736 3.2784L5.96561 0.333259H2.81203L2.60029 3.2784C2.59575 3.3352 2.6052 3.39233 2.62752 3.44317C2.64985 3.49401 2.68414 3.53648 2.72643 3.56565C2.90754 3.68943 3.23191 3.89782 3.4878 3.98922C4.16041 4.22947 4.61723 4.22947 5.28985 3.98922Z" fill="#5897F4"/>
<path d="M0.773474 0.558876L0.010955 3.63462C0.000191988 3.67569 -0.00268534 3.71896 0.00252272 3.76144C0.00773078 3.80392 0.0208995 3.84459 0.0411146 3.88061C0.0613297 3.91664 0.088107 3.94716 0.119588 3.97007C0.151068 3.99297 0.186497 4.00771 0.223416 4.01325C0.603776 4.06771 1.27222 4.12581 1.72955 3.96398C1.99738 3.86906 2.34083 3.64603 2.51593 3.5257C2.55146 3.50103 2.58135 3.46692 2.60312 3.42623C2.62489 3.38554 2.6379 3.33944 2.64106 3.29178L2.85487 0.333252H1.0332C0.974512 0.333237 0.917417 0.35525 0.870555 0.395959C0.823692 0.436668 0.789613 0.493859 0.773474 0.558876Z" fill="#1872F6"/>
</svg>
