<svg width="24" height="24" viewBox="0 0 24 24" fill="none" xmlns="http://www.w3.org/2000/svg">
<circle cx="12" cy="12" r="12" fill="#F95E73"/>
<path fill-rule="evenodd" clip-rule="evenodd" d="M11.9949 6.85186C10.4953 5.0988 7.99481 4.62723 6.11602 6.23251C4.23723 7.83779 3.97273 10.5217 5.44815 12.4203C6.67486 13.9988 10.3873 17.3281 11.6041 18.4056C11.7402 18.5262 11.8083 18.5865 11.8877 18.6101C11.957 18.6308 12.0328 18.6308 12.1021 18.6101C12.1815 18.5865 12.2495 18.5262 12.3857 18.4056C13.6024 17.3281 17.3149 13.9988 18.5416 12.4203C20.017 10.5217 19.7848 7.8209 17.8737 6.23251C15.9626 4.64412 13.4944 5.0988 11.9949 6.85186Z" fill="white"/>
</svg>
