<svg width="372" height="415" viewBox="0 0 372 415" fill="none" xmlns="http://www.w3.org/2000/svg">
<path d="M188.338 1.66469C186.938 0.675151 185.062 0.675151 183.662 1.66469C136.539 34.977 85.2704 56.6543 5.11061 36.302C2.54841 35.6514 0.028583 37.5679 0.0999052 40.2105C0.741986 64 5.48026 164.021 40.2162 245.704C84.2922 349.35 164.222 401.97 182.299 412.851C184.616 414.246 187.384 414.246 189.701 412.851C207.778 401.97 287.708 349.35 331.784 245.704C366.52 164.021 371.258 64 371.9 40.2105C371.971 37.5679 369.452 35.6514 366.889 36.302C286.73 56.6543 235.461 34.977 188.338 1.66469Z" fill="url(#paint0_linear_2872_2436)"/>
<path d="M186 27C137.5 59.6835 85 81.1613 1 59.6835C1 59.6835 1.5 169.407 41 256.718C84.9691 353.909 164.812 403.109 182.478 413.081C184.707 414.339 187.293 414.339 189.522 413.081C207.188 403.109 287.031 353.909 331 256.718C370.5 169.407 371 59.6835 371 59.6835C287 81.1613 234.5 59.6835 186 27Z" fill="white"/>
<path d="M249.801 235.756C249.801 240.282 248.998 243.64 247.392 245.83C245.786 248.02 243.231 250.137 239.727 252.181C237.683 253.349 235.128 254.517 232.062 255.685C228.996 256.707 225.638 257.583 221.988 258.313C218.338 259.189 214.469 259.846 210.381 260.284C206.439 260.722 202.497 260.941 198.555 260.941C188.043 260.941 178.188 259.554 168.99 256.78C159.792 253.86 151.762 249.553 144.9 243.859C138.184 238.019 132.855 230.792 128.913 222.178C124.971 213.564 123 203.563 123 192.175C123 180.203 125.117 169.764 129.351 160.858C133.731 151.952 139.425 144.579 146.433 138.739C153.587 132.753 161.69 128.3 170.742 125.38C179.94 122.46 189.357 121 198.993 121C212.863 121 223.813 123.263 231.843 127.789C240.019 132.169 244.107 137.936 244.107 145.09C244.107 148.886 243.158 152.171 241.26 154.945C238.027 159.67 231.599 159.578 226.337 157.323C224.637 156.595 222.822 155.875 220.893 155.164C215.491 152.974 209.359 151.879 202.497 151.879C190.233 151.879 180.451 155.383 173.151 162.391C165.997 169.399 162.42 179.108 162.42 191.518C162.42 198.234 163.369 204.074 165.267 209.038C167.311 213.856 170.012 217.871 173.37 221.083C176.728 224.149 180.597 226.485 184.977 228.091C189.357 229.551 194.029 230.281 198.993 230.281C202.205 230.281 205.052 229.989 207.534 229.405C211.165 228.551 213.228 225.121 213.228 221.391V211.848C213.228 209.087 210.989 206.848 208.228 206.848H196.677C192.435 206.848 188.509 204.522 187.167 200.497C186.437 197.869 186.072 195.095 186.072 192.175C186.072 186.919 187.24 183.123 189.576 180.787C192.058 178.451 195.197 177.283 198.993 177.283H236.004C240.384 177.283 243.742 178.524 246.078 181.006C248.56 183.342 249.801 186.7 249.801 191.08V235.756Z" fill="#1872F6"/>
<defs>
<linearGradient id="paint0_linear_2872_2436" x1="186" y1="0" x2="186" y2="97" gradientUnits="userSpaceOnUse">
<stop stop-color="#C0D5F3"/>
<stop offset="1" stop-color="#C0D5F3" stop-opacity="0"/>
</linearGradient>
</defs>
</svg>
