<svg width="21" height="20" viewBox="0 0 21 20" fill="none" xmlns="http://www.w3.org/2000/svg">
<path d="M15.1519 0.605314C14.9172 0.630825 14.7004 0.676743 14.6698 0.707355C14.6545 0.722662 14.6188 0.732864 14.5881 0.732864C14.5575 0.732864 14.5269 0.740519 14.5218 0.750723C14.5193 0.763477 14.4631 0.79664 14.3994 0.829803C14.1927 0.934395 14.032 1.04919 13.8662 1.21756C13.7667 1.3145 13.5575 1.58235 13.5575 1.61041C13.5575 1.61807 13.532 1.66909 13.4989 1.72266C13.4657 1.77368 13.4172 1.88082 13.3917 1.95735C13.3688 2.03388 13.3331 2.12572 13.3177 2.16143C13.2795 2.25072 13.2642 17.8374 13.3024 18.0032C13.3177 18.067 13.3382 18.1461 13.3458 18.1818C13.3586 18.2456 13.4121 18.3859 13.4529 18.4624C13.7055 18.942 13.9785 19.2226 14.3994 19.4369C14.4631 19.47 14.5193 19.5032 14.5218 19.5134C14.5269 19.5262 14.5575 19.5338 14.5881 19.5338C14.6188 19.5338 14.6545 19.544 14.6672 19.5568C14.6825 19.5721 14.7795 19.6027 14.8841 19.6257C15.0575 19.6665 15.2999 19.6716 17.6264 19.6818C19.0295 19.6869 20.2361 19.6843 20.3075 19.6741C20.5473 19.6461 20.7259 19.4649 20.7259 19.2507C20.7259 19.1767 20.6621 19.0338 20.5983 18.9675C20.4886 18.8501 20.4427 18.845 19.1698 18.845H17.9708V18.4369V18.0287H19.1264C20.3713 18.0287 20.4759 18.0185 20.5907 17.8961C20.6698 17.8093 20.7259 17.6843 20.7259 17.595C20.7259 17.4343 20.5677 17.2328 20.4147 17.2022C20.3713 17.1945 19.805 17.1869 19.1545 17.1869H17.9708V16.7787V16.3706H19.1264C19.759 16.3706 20.3254 16.3578 20.3789 16.3451C20.4351 16.3323 20.509 16.3017 20.5448 16.2736C20.6366 16.2073 20.7259 16.044 20.7259 15.942C20.7259 15.7762 20.5703 15.5746 20.4147 15.544C20.3713 15.5364 19.805 15.5287 19.1545 15.5287H17.9708V15.1206V14.7124H19.1213C20.3152 14.7124 20.4045 14.7048 20.555 14.6027C20.6417 14.544 20.7259 14.3833 20.7259 14.2787C20.7259 14.1078 20.5626 13.9139 20.3994 13.8859C20.3483 13.8782 19.7795 13.8706 19.1392 13.8706H17.9708V13.4624V13.0542L19.1519 13.0466C19.7999 13.0415 20.3662 13.0287 20.407 13.016C20.5805 12.9675 20.7259 12.7864 20.7259 12.6206C20.7259 12.4497 20.5626 12.2558 20.3994 12.2277C20.3483 12.2201 19.7795 12.2124 19.1392 12.2124H17.9708V11.8043V11.3961L19.1519 11.3884C19.7999 11.3833 20.3662 11.3706 20.407 11.3578C20.5805 11.3094 20.7259 11.1282 20.7259 10.9624C20.7259 10.7915 20.5626 10.5976 20.3994 10.5696C20.3483 10.5619 19.7795 10.5543 19.1392 10.5543H17.9708V10.1333V9.71242H19.1392C19.7795 9.71242 20.3483 9.70477 20.3994 9.69712C20.5626 9.66906 20.7259 9.47518 20.7259 9.30426C20.7259 9.13845 20.5805 8.95732 20.407 8.90886C20.3662 8.8961 19.7999 8.88335 19.1519 8.87824L17.9708 8.87059V8.46243V8.05427H19.1392C19.7795 8.05427 20.3483 8.04661 20.3994 8.03896C20.5626 8.0109 20.7259 7.81702 20.7259 7.6461C20.7259 7.47774 20.583 7.29917 20.407 7.2507C20.3662 7.23794 19.7999 7.22519 19.1519 7.22009L17.9708 7.21243V6.80427V6.39611H19.1392C19.7795 6.39611 20.3483 6.38846 20.3994 6.3808C20.5626 6.35274 20.7259 6.15887 20.7259 5.98795C20.7259 5.88336 20.6417 5.72264 20.555 5.66397C20.4045 5.56193 20.3152 5.55428 19.1213 5.55428H17.9708V5.14611V4.73795H19.1545C19.805 4.73795 20.3713 4.7303 20.4147 4.72265C20.5703 4.69203 20.7259 4.4905 20.7259 4.32469C20.7259 4.22265 20.6366 4.05938 20.5448 3.99306C20.509 3.965 20.4351 3.93438 20.3789 3.92163C20.3254 3.90887 19.759 3.89612 19.1264 3.89612H17.9708V3.48796V3.0798H19.1545C19.805 3.0798 20.3713 3.07214 20.4147 3.06449C20.5652 3.03388 20.7259 2.83235 20.7259 2.67418C20.7259 2.5798 20.6545 2.41908 20.5856 2.36041C20.4555 2.24817 20.3458 2.23796 19.1264 2.23796H17.9708V1.8298V1.42164H19.1698C20.1927 1.42164 20.384 1.41654 20.4631 1.38337C20.5728 1.33745 20.6238 1.28899 20.6825 1.16909C20.7973 0.939497 20.6493 0.666538 20.3764 0.602764C20.2616 0.577253 15.4096 0.579805 15.1519 0.605314ZM17.129 10.1333V18.845H16.157C15.1009 18.845 15.0422 18.8399 14.7591 18.6971C14.5091 18.5721 14.1698 18.1741 14.1698 18.0058C14.1698 17.9803 14.1545 17.9522 14.1392 17.9445C14.1137 17.9369 14.106 16.3527 14.106 10.1333C14.106 3.91398 14.1137 2.3298 14.1392 2.31959C14.1545 2.31449 14.1698 2.28643 14.1698 2.26092C14.1698 2.09766 14.5091 1.69715 14.7489 1.5747C15.0244 1.43439 15.0728 1.42674 16.1417 1.42419L17.129 1.42164V10.1333Z" fill="#666666"/>
<path d="M3.02181 1.61036C2.8611 1.66648 2.75651 1.7226 2.63406 1.81444C2.56773 1.86546 2.50651 1.90628 2.49375 1.90628C2.45804 1.90628 2.06518 2.32209 1.96059 2.4675C1.81008 2.67668 1.77692 2.73791 1.67488 2.9777C1.51672 3.35015 1.481 3.53637 1.48355 3.99811C1.48355 4.57719 1.51417 4.69198 1.91978 5.55422C1.96314 5.64606 2.03967 5.81187 2.0907 5.92412C2.20039 6.16391 2.28967 6.35269 2.43253 6.65626C2.48865 6.77871 2.53712 6.89095 2.53712 6.90626C2.53712 6.91901 2.54478 6.93177 2.55753 6.93177C2.56773 6.93177 2.60345 7.00575 2.63661 7.09758C2.67233 7.18942 2.71059 7.2634 2.72079 7.2634C2.731 7.2634 2.7412 7.28381 2.7412 7.30932C2.7412 7.33483 2.75906 7.37819 2.77947 7.40626C2.79988 7.43177 2.81773 7.47513 2.81773 7.49809C2.81773 7.5236 2.83049 7.54401 2.84324 7.54401C2.85855 7.54401 2.86875 7.55677 2.86875 7.57207C2.86875 7.58738 2.91467 7.69962 2.97334 7.81952C3.03202 7.94197 3.11365 8.11544 3.15447 8.20727C3.19783 8.29911 3.27436 8.46493 3.32794 8.57717C3.45293 8.84247 3.56008 9.06952 3.65957 9.29145C3.70548 9.38839 3.77946 9.54911 3.82793 9.64604C3.8764 9.74553 3.91467 9.83992 3.91467 9.85778C3.91467 9.87564 3.92742 9.89094 3.94018 9.89094C3.95548 9.89094 3.96569 9.9037 3.96569 9.92155C3.96569 9.94961 4.04987 10.1409 4.18507 10.4139C4.26161 10.5695 4.26161 10.5721 4.18507 10.7251C4.0065 11.0874 3.91467 11.2863 3.91467 11.3144C3.91467 11.3323 3.90446 11.345 3.88916 11.345C3.8764 11.345 3.86365 11.3578 3.86365 11.3731C3.86365 11.3909 3.82028 11.4955 3.76416 11.6103C3.6111 11.9317 3.55753 12.0542 3.55753 12.0823C3.55753 12.0976 3.54732 12.1103 3.53202 12.1103C3.51926 12.1103 3.50651 12.1231 3.50651 12.1409C3.50651 12.1562 3.46824 12.2506 3.41977 12.3501C3.3713 12.4496 3.30243 12.6001 3.26416 12.6843C3.17998 12.8705 3.02692 13.1996 2.9912 13.2761C2.96824 13.3246 2.94018 13.3348 2.84579 13.3348C2.72335 13.3348 2.37641 13.4011 2.30243 13.4394C2.27947 13.4522 2.21314 13.47 2.15447 13.4777C2.09835 13.4879 2.05243 13.5032 2.05243 13.5159C2.05243 13.5287 2.03202 13.5389 2.00906 13.5389C1.98355 13.5414 1.88917 13.5797 1.79733 13.6282C1.70549 13.6766 1.6009 13.7302 1.56008 13.7455C1.52182 13.7608 1.49121 13.7838 1.49121 13.7965C1.49121 13.8093 1.47335 13.8195 1.45294 13.8195C1.43253 13.8195 1.41468 13.8297 1.41468 13.8399C1.41468 13.8527 1.38917 13.8731 1.35855 13.8884C1.23611 13.9445 0.889169 14.2583 0.746312 14.4394C0.700394 14.4981 0.649374 14.5567 0.631517 14.5669C0.61366 14.5771 0.598354 14.6027 0.598354 14.6231C0.598354 14.6409 0.590701 14.6613 0.577946 14.6664C0.549885 14.6766 0.394273 14.9292 0.394273 14.9624C0.394273 14.9751 0.38662 14.993 0.376416 14.9981C0.363661 15.0006 0.3356 15.0516 0.307539 15.1078C0.282028 15.1639 0.251416 15.2302 0.238661 15.2532C0.179988 15.3705 0.0728455 15.743 0.0294783 15.9751C-0.0317459 16.3195 0.00907027 17.1868 0.0907026 17.2761C0.103458 17.2889 0.113662 17.3271 0.113662 17.3654C0.113662 17.4011 0.131519 17.4623 0.151927 17.5032C0.172335 17.5414 0.190192 17.5873 0.190192 17.6052C0.190192 17.6205 0.225906 17.7021 0.266722 17.7863C0.307539 17.8705 0.343253 17.9547 0.343253 17.97C0.343253 17.9878 0.356008 18.0032 0.368763 18.0032C0.384069 18.0032 0.394273 18.0159 0.394273 18.0312C0.394273 18.0618 0.600905 18.3833 0.687639 18.4853C0.807537 18.6307 1.106 18.9164 1.23866 19.0159C1.49376 19.2047 1.88406 19.4215 2.05243 19.4674C2.08814 19.4776 2.13916 19.4955 2.16723 19.5057C2.27692 19.5516 2.50651 19.6103 2.57029 19.6103C2.606 19.6103 2.66722 19.623 2.70549 19.6358C2.79222 19.669 3.5014 19.6715 3.62895 19.6384C3.67997 19.6256 3.81518 19.595 3.92742 19.5695C4.03967 19.5465 4.14936 19.5185 4.16977 19.5057C4.19018 19.4955 4.26671 19.4674 4.33558 19.4419C4.5065 19.3833 4.82283 19.2149 4.93762 19.123C4.98864 19.0822 5.03966 19.0491 5.04732 19.0491C5.08303 19.0491 5.44783 18.7047 5.61109 18.5134C5.65446 18.4649 5.74119 18.3475 5.80242 18.2557C5.86364 18.1613 5.92742 18.0899 5.94272 18.095C5.95548 18.1026 6.01925 18.1894 6.08303 18.2889C6.23099 18.521 6.57792 18.8756 6.83558 19.0567C6.94782 19.1358 7.05241 19.2098 7.06517 19.22C7.09323 19.2404 7.35853 19.373 7.5167 19.4419C7.56772 19.4649 7.62384 19.4827 7.64425 19.4827C7.66465 19.4827 7.69016 19.4929 7.70292 19.5032C7.71823 19.5159 7.82027 19.5465 7.93251 19.5695C8.04475 19.595 8.17741 19.6256 8.22843 19.6384C8.35853 19.6715 8.97842 19.6664 9.20036 19.6333C9.3024 19.6179 9.42995 19.5873 9.48352 19.5695C9.53454 19.5491 9.60852 19.5338 9.64169 19.5338C9.6774 19.5338 9.70546 19.5236 9.70546 19.5108C9.70546 19.498 9.75138 19.4802 9.8075 19.47C9.86363 19.4598 9.90954 19.4419 9.90954 19.4292C9.90954 19.4164 9.92485 19.4062 9.94526 19.4062C9.97842 19.4062 10.1774 19.3067 10.3432 19.2047C10.3917 19.1741 10.4529 19.1435 10.4784 19.1358C10.5014 19.1256 10.5218 19.1103 10.5218 19.1001C10.5218 19.0899 10.5703 19.0491 10.6289 19.0108C10.7437 18.9343 11.2106 18.4725 11.2106 18.4368C11.2106 18.4241 11.2259 18.3986 11.2437 18.3807C11.2947 18.3297 11.4478 18.0822 11.5192 17.9394C11.5524 17.868 11.5881 17.8067 11.5983 17.7991C11.606 17.7914 11.6238 17.7506 11.634 17.7098C11.6442 17.6664 11.6595 17.6205 11.6697 17.6077C11.7259 17.5312 11.8254 17.072 11.8509 16.7787C11.8789 16.4751 11.8458 15.8986 11.7947 15.8067C11.782 15.7812 11.7718 15.7353 11.7718 15.7047C11.7718 15.6358 11.6187 15.2149 11.5881 15.2021C11.5779 15.197 11.5677 15.1741 11.5677 15.1511C11.5677 15.0976 11.3942 14.7965 11.2871 14.6613C11.2463 14.6078 11.2106 14.5567 11.2106 14.544C11.2106 14.5338 11.0983 14.4139 10.9631 14.2787C10.7157 14.0363 10.3407 13.743 10.2794 13.743C10.259 13.743 10.2412 13.7353 10.2361 13.7226C10.2233 13.6945 9.91465 13.5516 9.75648 13.5006C9.67995 13.4751 9.59322 13.4471 9.56516 13.4368C9.45291 13.396 9.12383 13.3348 9.01669 13.3348H8.90189L8.82026 13.1588C8.77434 13.0618 8.73608 12.97 8.73608 12.9547C8.73608 12.9394 8.72587 12.9266 8.71057 12.9266C8.69781 12.9266 8.68506 12.9139 8.68506 12.896C8.68506 12.868 8.62128 12.7251 8.45292 12.3756C8.4121 12.2914 8.37894 12.2073 8.37894 12.192C8.37894 12.1741 8.36873 12.1613 8.35343 12.1613C8.34067 12.1613 8.32792 12.1486 8.32792 12.1307C8.32792 12.1154 8.29475 12.0312 8.25394 11.9471C8.21312 11.8603 8.14169 11.7098 8.09833 11.6129C8.01159 11.4241 7.9019 11.1894 7.75394 10.8756C7.60088 10.5517 7.60343 10.567 7.68761 10.3909C7.72843 10.3068 7.79731 10.1537 7.84322 10.0568C7.98098 9.75319 8.00904 9.69962 8.02945 9.69196C8.03965 9.68686 8.04731 9.66135 8.04731 9.63584C8.04731 9.61033 8.05751 9.58227 8.07026 9.57207C8.08302 9.56441 8.10088 9.5236 8.11108 9.48278C8.12128 9.43941 8.13914 9.40625 8.1519 9.40625C8.16465 9.40625 8.17486 9.39349 8.17486 9.37819C8.17486 9.36033 8.22077 9.25319 8.27435 9.13839C8.32792 9.0236 8.38149 8.90115 8.39169 8.86799C8.4019 8.83482 8.4172 8.80166 8.42741 8.79401C8.43506 8.78635 8.46057 8.74043 8.48353 8.69197C8.64679 8.34503 8.71312 8.20217 8.77434 8.06697C8.81261 7.98278 8.88149 7.83228 8.9274 7.73534C8.97332 7.63585 9.0524 7.46748 9.10342 7.35779C9.15444 7.25064 9.23608 7.07718 9.28455 6.97258C9.33302 6.87054 9.37383 6.77361 9.37383 6.75575C9.37383 6.74044 9.38659 6.72769 9.39934 6.72769C9.41465 6.72769 9.42485 6.70473 9.42485 6.67922C9.42485 6.65116 9.43506 6.6231 9.44781 6.61289C9.46057 6.60524 9.47842 6.56442 9.48863 6.52361C9.49883 6.48024 9.51669 6.44708 9.52944 6.44708C9.5422 6.44708 9.5524 6.43687 9.5524 6.42412C9.5524 6.40881 9.59832 6.29912 9.65699 6.17412C9.71312 6.05167 9.79475 5.87565 9.83811 5.78381C9.88148 5.69198 9.96056 5.52106 10.0167 5.40116C10.0728 5.28126 10.1366 5.14351 10.1595 5.09504C10.18 5.04657 10.2055 4.9879 10.2157 4.96749C10.2463 4.90371 10.3152 4.65627 10.356 4.47514C10.407 4.24811 10.407 3.74811 10.356 3.52107C10.3152 3.33739 10.2463 3.0925 10.2157 3.02872C10.1187 2.82209 9.99118 2.58229 9.95546 2.54403C9.92995 2.51597 9.90954 2.48791 9.90954 2.4777C9.90954 2.42668 9.60087 2.0976 9.4223 1.9573C9.36108 1.90883 9.3075 1.86036 9.3024 1.85015C9.2973 1.83995 9.27689 1.82975 9.25648 1.82975C9.23608 1.82975 9.22077 1.81954 9.22077 1.80679C9.22077 1.79403 9.19526 1.77362 9.16465 1.76342C9.13148 1.75322 9.10087 1.74046 9.09322 1.73026C9.07281 1.7073 8.9121 1.63332 8.80751 1.60015C8.6723 1.55934 8.51669 1.60526 8.4121 1.7175C8.36618 1.76597 8.32792 1.81189 8.32792 1.81954C8.32792 1.83485 8.13659 2.24046 8.04475 2.42158C8.00394 2.50321 7.97078 2.5874 7.97078 2.60781C7.97078 2.62821 7.96057 2.64607 7.94527 2.64607C7.93251 2.64607 7.91975 2.65882 7.91975 2.67413C7.91975 2.68944 7.88659 2.77617 7.84322 2.86801C7.80241 2.95729 7.76669 3.04403 7.76669 3.05678C7.76669 3.06954 7.75649 3.07974 7.74118 3.07974C7.72843 3.07974 7.71567 3.0925 7.71567 3.11035C7.71567 3.12566 7.68251 3.20984 7.6417 3.29403C7.51925 3.55678 7.48608 3.63586 7.48608 3.66392C7.48608 3.67923 7.47588 3.69198 7.46057 3.69198C7.44782 3.69198 7.43506 3.70474 7.43506 3.72005C7.43506 3.73535 7.37894 3.86545 7.31006 4.00831C7.24374 4.14862 7.16466 4.31698 7.13659 4.38076C7.10598 4.44453 7.04221 4.58229 6.99374 4.68688C6.94527 4.79147 6.85088 4.993 6.78711 5.13331C6.72078 5.27361 6.6519 5.41902 6.63149 5.45728C6.61109 5.493 6.59323 5.54147 6.59323 5.56443C6.59323 5.58739 6.58303 5.60524 6.57027 5.60524C6.55752 5.60524 6.53966 5.63841 6.52945 5.68177C6.51925 5.72259 6.50139 5.7583 6.48864 5.7583C6.47588 5.7583 6.46568 5.77616 6.46568 5.79657C6.46568 5.84249 6.38405 6.02361 6.35599 6.03381C6.34578 6.03891 6.33813 6.05677 6.33813 6.07208C6.33813 6.08738 6.30241 6.17412 6.25905 6.26595C6.03201 6.7481 5.98609 6.84503 5.97078 6.88585C5.95293 6.94197 5.90446 6.94707 5.90446 6.8935C5.90446 6.87309 5.89425 6.85524 5.87895 6.85524C5.86619 6.85524 5.85344 6.84248 5.85344 6.82718C5.85344 6.81442 5.82538 6.74044 5.79221 6.66901C5.75905 6.59503 5.70803 6.48279 5.67742 6.41646C5.64936 6.35014 5.62385 6.28381 5.62385 6.27106C5.62385 6.25575 5.61364 6.243 5.59834 6.243C5.58558 6.243 5.57282 6.23024 5.57282 6.21749C5.57282 6.20218 5.51415 6.06953 5.44272 5.91647C5.3713 5.76596 5.29221 5.59759 5.2667 5.54147C5.24119 5.48534 5.17487 5.33994 5.11619 5.21749C5.05752 5.09504 5.0116 4.9828 5.0116 4.96749C5.0116 4.95473 5.0014 4.94198 4.98609 4.94198C4.97334 4.94198 4.96058 4.92922 4.96058 4.91392C4.96058 4.88586 4.90701 4.76341 4.75395 4.44198C4.69783 4.32719 4.65446 4.2226 4.65446 4.20474C4.65446 4.18943 4.64426 4.17668 4.62895 4.17668C4.6162 4.17668 4.60344 4.15372 4.60344 4.12821C4.60344 4.10015 4.59324 4.07209 4.58048 4.06188C4.56773 4.05423 4.54987 4.01341 4.53967 3.9726C4.52946 3.92923 4.5116 3.89607 4.49885 3.89607C4.48609 3.89607 4.47589 3.88586 4.47589 3.87311C4.47589 3.8578 4.42997 3.74811 4.3713 3.62311C4.18252 3.21494 4.05752 2.94964 3.83814 2.48026C3.77946 2.3527 3.70804 2.19964 3.67997 2.13587C3.58304 1.91648 3.54477 1.8425 3.52691 1.83485C3.51416 1.82975 3.50651 1.81189 3.50651 1.79403C3.50651 1.74046 3.36875 1.63077 3.26416 1.60271C3.14426 1.56954 3.13916 1.56954 3.02181 1.61036ZM3.02181 2.67413C3.02181 2.68689 3.08049 2.81954 3.15192 2.97005C3.22334 3.12311 3.31518 3.31443 3.35345 3.39862C3.50396 3.7226 3.6111 3.95474 3.69783 4.13586C3.7463 4.2379 3.78712 4.33484 3.78712 4.3527C3.78712 4.368 3.79987 4.38076 3.81263 4.38076C3.82793 4.38076 3.83814 4.40117 3.83814 4.42668C3.83814 4.45219 3.85599 4.49555 3.8764 4.52361C3.89681 4.54912 3.91467 4.59249 3.91467 4.61545C3.91467 4.64096 3.92742 4.66137 3.94018 4.66137C3.95548 4.66137 3.96569 4.67157 3.96569 4.68688C3.96569 4.70984 4.02436 4.83994 4.26416 5.35014C4.39681 5.63075 4.5116 5.88075 4.57793 6.02616C4.60344 6.08228 4.67742 6.243 4.74375 6.3833C4.81007 6.52361 4.90701 6.73024 4.96058 6.84248C5.11619 7.17411 5.16466 7.28381 5.16466 7.31187C5.16466 7.32718 5.17742 7.33993 5.19017 7.33993C5.20548 7.33993 5.21568 7.35268 5.21568 7.37054C5.21568 7.38585 5.24374 7.45728 5.27691 7.5287C5.31262 7.60013 5.36874 7.72513 5.40446 7.80676L5.47078 7.95217L5.3917 8.12564C5.34834 8.22003 5.27436 8.37819 5.22589 8.47768C5.17742 8.57717 5.13915 8.67156 5.13915 8.68941C5.13915 8.70472 5.12895 8.71748 5.11364 8.71748C5.10089 8.71748 5.08813 8.73788 5.08813 8.76084C5.08813 8.78635 5.07028 8.82972 5.04987 8.85523C5.02946 8.88329 5.0116 8.92666 5.0116 8.95217C5.0116 8.97768 5.0014 8.99809 4.98609 8.99809C4.97334 8.99809 4.96058 9.01084 4.96058 9.02615C4.96058 9.06696 4.72079 9.55931 4.70293 9.55931C4.69273 9.55931 4.67742 9.5236 4.66722 9.48278C4.65701 9.44196 4.63915 9.40625 4.6264 9.40625C4.61364 9.40625 4.60344 9.38329 4.60344 9.35778C4.60344 9.32972 4.59324 9.30166 4.58048 9.29145C4.56773 9.2838 4.54987 9.24298 4.53967 9.20217C4.52946 9.1588 4.5116 9.12564 4.49885 9.12564C4.48609 9.12564 4.47589 9.11543 4.47589 9.10013C4.47589 9.07462 4.36875 8.83737 4.01926 8.10013C3.96314 7.97768 3.91467 7.86544 3.91467 7.85013C3.91467 7.83738 3.90446 7.82462 3.88916 7.82462C3.8764 7.82462 3.86365 7.81187 3.86365 7.79656C3.86365 7.7685 3.83048 7.68942 3.70804 7.42666C3.66722 7.34248 3.63406 7.2583 3.63406 7.24299C3.63406 7.22513 3.62385 7.21238 3.6111 7.21238C3.59834 7.21238 3.58049 7.17667 3.57028 7.13585C3.56008 7.09248 3.54222 7.05932 3.52947 7.05932C3.51671 7.05932 3.50651 7.03891 3.50651 7.0134C3.50651 6.99044 3.48865 6.94707 3.46824 6.92156C3.44783 6.8935 3.42998 6.85014 3.42998 6.82463C3.42998 6.79912 3.41977 6.77871 3.40447 6.77871C3.39171 6.77871 3.37896 6.7685 3.37896 6.7532C3.37896 6.74044 3.33559 6.6333 3.27947 6.5185C3.22589 6.40116 3.15447 6.2481 3.12385 6.17922C2.98355 5.87055 2.77437 5.42157 2.63916 5.13331C2.46314 4.76851 2.40957 4.63841 2.39171 4.55933C2.38406 4.51596 2.3662 4.47514 2.356 4.46749C2.34325 4.45984 2.33304 4.41137 2.33304 4.36035C2.33304 4.30933 2.32284 4.22515 2.31008 4.17157C2.28202 4.05423 2.32029 3.64607 2.37386 3.4777C2.41212 3.35525 2.52692 3.10015 2.5958 2.99046C2.61365 2.96239 2.70039 2.86291 2.79222 2.76852C2.91467 2.64097 2.96569 2.60525 2.98865 2.62566C3.00651 2.64097 3.02181 2.66138 3.02181 2.67413ZM9.02179 2.70474C9.23097 2.90372 9.46057 3.29148 9.49373 3.50066C9.50138 3.55678 9.51924 3.61545 9.53199 3.63076C9.54475 3.64862 9.55495 3.80423 9.55495 3.97515C9.5575 4.25831 9.54985 4.31443 9.48097 4.52361C9.43761 4.65372 9.36108 4.84759 9.31006 4.95729C9.21567 5.15882 9.15955 5.27616 8.96822 5.68943C8.90955 5.81443 8.86363 5.92412 8.86363 5.93943C8.86363 5.95218 8.85343 5.96238 8.84067 5.96238C8.82792 5.96238 8.81006 5.99555 8.79985 6.03891C8.78965 6.07973 8.77179 6.12055 8.75904 6.1282C8.74628 6.1384 8.73608 6.16646 8.73608 6.19453C8.73608 6.22004 8.72587 6.243 8.71057 6.243C8.69781 6.243 8.68506 6.25575 8.68506 6.27106C8.68506 6.28891 8.64169 6.39351 8.58557 6.5083C8.43251 6.82973 8.37894 6.95218 8.37894 6.98024C8.37894 6.99554 8.36873 7.0083 8.35343 7.0083C8.34067 7.0083 8.32792 7.0185 8.32792 7.03126C8.32792 7.05677 8.26669 7.19452 7.92741 7.92666C7.77435 8.25574 7.75394 8.29656 7.73608 8.30421C7.72333 8.30931 7.71567 8.32972 7.71567 8.35013C7.71567 8.36799 7.66465 8.49299 7.60088 8.62309C7.5371 8.75574 7.48608 8.87564 7.48608 8.8935C7.48608 8.9088 7.47588 8.92156 7.46312 8.92156C7.45037 8.92156 7.43251 8.95472 7.42231 8.99809C7.4121 9.0389 7.39425 9.07972 7.38149 9.08737C7.36874 9.09758 7.35853 9.12564 7.35853 9.1537C7.35853 9.17921 7.34833 9.20217 7.33302 9.20217C7.32027 9.20217 7.30751 9.21492 7.30751 9.23023C7.30751 9.24809 7.25394 9.37053 7.19017 9.50574C7.06517 9.76849 6.99119 9.92155 6.82282 10.2863C6.65956 10.6384 6.63149 10.6996 6.50649 10.9675C6.44272 11.1052 6.38915 11.2277 6.38915 11.243C6.38915 11.2557 6.37894 11.2685 6.36364 11.2685C6.35088 11.2685 6.33813 11.2812 6.33813 11.2965C6.33813 11.3246 6.28456 11.4471 6.1315 11.7685C6.07537 11.8833 6.03201 11.9879 6.03201 12.0057C6.03201 12.021 6.0218 12.0338 6.0065 12.0338C5.99374 12.0338 5.98099 12.0567 5.98099 12.0823C5.98099 12.1103 5.97078 12.1384 5.95803 12.1486C5.94527 12.1562 5.92742 12.1971 5.91721 12.2379C5.90701 12.2812 5.88915 12.3144 5.8764 12.3144C5.86364 12.3144 5.85344 12.3246 5.85344 12.3399C5.85344 12.3629 5.81262 12.4573 5.58303 12.9445C5.12895 13.919 5.0116 14.1741 5.0116 14.2047C5.0116 14.2175 5.0014 14.2277 4.98609 14.2277C4.97334 14.2277 4.96058 14.2404 4.96058 14.2557C4.96058 14.2685 4.93507 14.3348 4.90701 14.4011C4.83558 14.5567 4.81773 14.7149 4.86109 14.8195C4.87895 14.8654 4.89936 14.9088 4.90956 14.9164C4.95293 14.9547 5.08813 15.1435 5.08813 15.169C5.08813 15.1843 5.09834 15.197 5.10854 15.197C5.13915 15.197 5.36874 15.6511 5.36874 15.7098C5.36874 15.7353 5.3815 15.7634 5.39425 15.771C5.40956 15.7787 5.41976 15.8093 5.41976 15.8348C5.41976 15.8629 5.43762 15.9368 5.45803 16.0006C5.50395 16.1358 5.51415 16.8297 5.47334 16.9649C5.46058 17.0108 5.42232 17.1256 5.3917 17.2251C5.36364 17.322 5.32793 17.4139 5.31517 17.4292C5.30242 17.4419 5.29221 17.4725 5.29221 17.4981C5.29221 17.5236 5.28201 17.544 5.2667 17.544C5.25395 17.544 5.24119 17.5567 5.24119 17.572C5.24119 17.7047 4.67232 18.3501 4.47079 18.447C4.42997 18.4649 4.34069 18.521 4.32283 18.5389C4.30497 18.5567 4.15446 18.6256 4.01671 18.6792C3.95293 18.7047 3.87895 18.7327 3.85089 18.7455C3.67232 18.8246 2.99375 18.8552 2.70294 18.7965C2.26671 18.7098 1.83559 18.4776 1.51927 18.1613C1.3509 17.993 1.2106 17.8169 1.2106 17.7761C1.2106 17.7608 1.20294 17.7481 1.19019 17.7481C1.16978 17.7481 1.15192 17.7149 1.06264 17.5287C1.03203 17.4598 0.996311 17.3858 0.986107 17.3654C0.958046 17.3118 0.889169 17.0746 0.853455 16.9139C0.784577 16.6052 0.830496 16.044 0.950393 15.72C1.02947 15.5083 1.20294 15.1715 1.26162 15.1205C1.26927 15.1129 1.30498 15.0669 1.34325 15.0159C1.43253 14.8986 1.54733 14.7812 1.66468 14.6919C1.7157 14.6537 1.78457 14.6027 1.81519 14.5746C1.90957 14.493 2.22845 14.3323 2.40957 14.271C2.47335 14.2506 2.56518 14.22 2.61365 14.2047C2.66212 14.1894 2.83559 14.169 2.9963 14.1613C3.39936 14.1409 3.51671 14.0874 3.6264 13.8629C3.71314 13.6868 3.84579 13.4037 3.95293 13.169C3.9912 13.0848 4.06008 12.9343 4.10854 12.8348C4.15701 12.7353 4.19528 12.6409 4.19528 12.6256C4.19528 12.6078 4.20803 12.595 4.22079 12.595C4.23609 12.595 4.2463 12.5823 4.2463 12.567C4.2463 12.5363 4.29987 12.4139 4.47589 12.0465C4.54222 11.9062 4.63405 11.7149 4.67742 11.6231C4.72079 11.5312 4.7565 11.442 4.7565 11.4267C4.7565 11.4088 4.76926 11.396 4.78201 11.396C4.79732 11.396 4.80752 11.3807 4.80752 11.3654C4.80752 11.3476 4.83558 11.2761 4.86875 11.2047C4.90446 11.1358 4.97334 10.9879 5.02181 10.8782C5.07283 10.771 5.15446 10.5925 5.20548 10.4828C5.2565 10.3756 5.33048 10.2175 5.36874 10.1333C5.40701 10.0491 5.48609 9.88074 5.54476 9.75829C5.60344 9.63839 5.64936 9.52615 5.64936 9.51084C5.64936 9.49553 5.66211 9.48278 5.67487 9.48278C5.69017 9.48278 5.70038 9.46237 5.70038 9.43686C5.70038 9.41135 5.71823 9.36798 5.73864 9.33992C5.75905 9.31441 5.77691 9.27105 5.77691 9.24554C5.77691 9.22258 5.78966 9.20217 5.80242 9.20217C5.81772 9.20217 5.82793 9.18941 5.82793 9.17411C5.82793 9.15625 5.86874 9.05931 5.91721 8.95727C6.0116 8.75829 6.1417 8.48023 6.2667 8.20727C6.31007 8.11544 6.3815 7.95983 6.42741 7.86289C6.47333 7.7634 6.54476 7.61034 6.58813 7.5185C6.68507 7.30932 6.85853 6.93942 6.95292 6.73789C6.99374 6.65371 7.0269 6.57208 7.0269 6.55677C7.0269 6.54146 7.03455 6.52361 7.04731 6.5185C7.07282 6.5083 7.15445 6.32718 7.15445 6.28126C7.15445 6.26085 7.16466 6.243 7.17741 6.243C7.19017 6.243 7.20802 6.20728 7.21823 6.16646C7.22843 6.1231 7.24629 6.08993 7.25904 6.08993C7.2718 6.08993 7.282 6.07208 7.282 6.05167C7.282 6.03126 7.31006 5.95983 7.34323 5.89096C7.37894 5.82463 7.44782 5.68177 7.49629 5.57208C7.54731 5.46494 7.62894 5.28637 7.67996 5.17667C7.73098 5.06953 7.79476 4.92922 7.82537 4.86545C7.85343 4.80167 7.93251 4.63331 7.99884 4.493C8.06771 4.35015 8.12384 4.22004 8.12384 4.20474C8.12384 4.18943 8.13659 4.17668 8.14935 4.17668C8.16465 4.17668 8.17486 4.16392 8.17486 4.14862C8.17486 4.12055 8.20802 4.04147 8.33047 3.77872C8.37128 3.69454 8.40445 3.61035 8.40445 3.59505C8.40445 3.57719 8.4172 3.56443 8.42996 3.56443C8.44526 3.56443 8.45547 3.55168 8.45547 3.53892C8.45547 3.51596 8.55751 3.28893 8.74883 2.88842C8.782 2.81699 8.82536 2.7226 8.84322 2.67668C8.86108 2.63331 8.88149 2.59505 8.88914 2.59505C8.89679 2.59505 8.95547 2.64607 9.02179 2.70474ZM7.25904 11.7736C7.37639 12.0287 7.50904 12.3119 7.57792 12.4547C7.61108 12.5261 7.63914 12.5976 7.63914 12.6154C7.63914 12.6307 7.6519 12.646 7.66465 12.646C7.67996 12.646 7.69016 12.6588 7.69016 12.6766C7.69016 12.692 7.72333 12.7761 7.76414 12.8603C7.93251 13.2098 7.99629 13.3527 7.99629 13.3807C7.99629 13.3986 8.00904 13.4113 8.0218 13.4113C8.0371 13.4113 8.04731 13.4241 8.04731 13.4394C8.04731 13.4573 8.09322 13.5644 8.14935 13.6817C8.20547 13.7991 8.25139 13.9037 8.25139 13.9164C8.25139 13.9496 8.42486 14.1001 8.46567 14.1001C8.48608 14.1001 8.50904 14.1103 8.51669 14.1205C8.52434 14.1333 8.67485 14.1511 8.85343 14.1588C9.032 14.1664 9.19016 14.1868 9.20291 14.1996C9.21822 14.2149 9.25393 14.2277 9.28199 14.2277C9.37128 14.2277 9.87128 14.4317 9.90954 14.4828C9.9172 14.4904 9.94016 14.5057 9.96056 14.5159C10.0218 14.544 10.0907 14.5925 10.1646 14.6613C10.2029 14.697 10.2718 14.7608 10.3203 14.8042C10.3687 14.8476 10.4299 14.9113 10.458 14.9445C10.5958 15.1103 10.6748 15.22 10.6748 15.2455C10.6748 15.2608 10.6851 15.2736 10.6978 15.2736C10.7106 15.2736 10.731 15.2991 10.7412 15.3297C10.7514 15.3629 10.7667 15.3935 10.7743 15.4011C10.7896 15.4113 10.8203 15.4853 10.9044 15.6945C11.1315 16.2532 11.0728 17.0287 10.7616 17.6077C10.6417 17.8348 10.5549 17.947 10.3356 18.1664C10.1672 18.3322 9.80495 18.5899 9.73863 18.5899C9.72077 18.5899 9.70546 18.6001 9.70546 18.6128C9.70546 18.6256 9.67995 18.6409 9.64934 18.6486C9.61618 18.6562 9.52689 18.6843 9.45036 18.7149C9.22842 18.7965 9.02689 18.8271 8.69781 18.8271C8.36873 18.8271 8.16975 18.7965 7.94527 18.7149C7.86873 18.6868 7.782 18.6562 7.75394 18.6486C7.72588 18.6384 7.60088 18.5695 7.47333 18.4904C7.08813 18.2532 6.73353 17.8552 6.57027 17.4802C6.53966 17.4088 6.50649 17.3348 6.49374 17.3144C6.47333 17.2761 6.41976 17.0593 6.36109 16.7736C6.32282 16.5924 6.36109 16.1486 6.44017 15.8476C6.49374 15.646 6.66466 15.3042 6.81517 15.1001C6.8917 14.9981 6.97078 14.8833 6.99119 14.845C7.04476 14.7379 7.03455 14.5746 6.96058 14.4113C6.86619 14.1996 6.75139 13.9573 6.66976 13.7812C6.62894 13.697 6.54986 13.5261 6.49119 13.4037L6.3866 13.1792L6.46568 13.0134C6.50649 12.9241 6.54221 12.8374 6.54221 12.8246C6.54221 12.8093 6.55241 12.7991 6.56517 12.7991C6.57792 12.7991 6.59578 12.7659 6.60598 12.7226C6.61619 12.6817 6.63405 12.6409 6.6468 12.6333C6.65956 12.6231 6.66976 12.595 6.66976 12.567C6.66976 12.5414 6.67996 12.5185 6.69272 12.5185C6.70547 12.5185 6.72333 12.4828 6.73353 12.442C6.74374 12.3986 6.7616 12.3654 6.77435 12.3654C6.78711 12.3654 6.79731 12.3501 6.79731 12.3297C6.79731 12.3093 6.82537 12.2379 6.85853 12.169C6.95802 11.97 7.0269 11.8093 7.0269 11.7812C7.0269 11.7659 7.03711 11.7532 7.04731 11.7532C7.05751 11.7532 7.08302 11.7124 7.10088 11.6639C7.11874 11.6154 7.14425 11.5797 7.157 11.5899C7.17231 11.5976 7.21823 11.6818 7.25904 11.7736ZM5.99884 14.3042C6.0167 14.3399 6.05497 14.4241 6.08303 14.493L6.13915 14.6154L6.04221 14.7557C5.93762 14.9062 5.90446 14.9368 5.90446 14.8807C5.90446 14.8603 5.8968 14.8399 5.8866 14.8348C5.87384 14.8297 5.83558 14.7787 5.79476 14.7175L5.72333 14.6103L5.81517 14.4215C5.86364 14.3195 5.90446 14.22 5.90446 14.2047C5.90446 14.1613 5.95803 14.22 5.99884 14.3042Z" fill="#666666"/>
<path d="M2.80768 15.0159C2.80003 15.0287 2.74901 15.0465 2.69799 15.0567C2.59595 15.0746 2.39697 15.1741 2.28472 15.2608C2.05513 15.4343 1.77197 15.8042 1.77197 15.9241C1.77197 15.9445 1.76177 15.9623 1.75156 15.9623C1.7235 15.9623 1.66483 16.2404 1.65207 16.4394C1.63932 16.6256 1.70054 16.9419 1.78473 17.1103C1.98115 17.5134 2.25156 17.7583 2.67758 17.9292C2.86636 18.0032 3.20819 18.0261 3.44799 17.9776C3.59594 17.9496 3.81533 17.8782 3.83829 17.8526C3.84594 17.8424 3.89441 17.8144 3.94798 17.7889C4.04237 17.7404 4.28472 17.521 4.38676 17.3909C4.45308 17.3042 4.59084 17.0236 4.63165 16.8807C4.67757 16.7328 4.67757 16.1537 4.63421 16.1103C4.61635 16.0924 4.60359 16.0593 4.60359 16.0312C4.60359 15.97 4.47349 15.7072 4.38166 15.5873C4.19543 15.3373 3.93268 15.1537 3.61635 15.0465C3.4888 15.0032 3.39441 14.993 3.13931 14.993C2.96329 14.993 2.81534 15.0032 2.80768 15.0159ZM3.50411 15.896C3.66227 15.9955 3.70054 16.0363 3.77452 16.1792C3.86635 16.3501 3.87145 16.6282 3.78472 16.7965C3.66992 17.0185 3.40207 17.1868 3.16227 17.1868C3.05513 17.1868 2.81789 17.1154 2.81789 17.0822C2.81789 17.0695 2.80513 17.0593 2.78727 17.0593C2.77197 17.0593 2.71074 17.0057 2.65207 16.9419C2.43523 16.7072 2.42248 16.3424 2.62401 16.072C2.67248 16.0057 2.76176 15.9343 2.85615 15.8858C2.99646 15.8118 3.02452 15.8067 3.20054 15.8144C3.3536 15.8246 3.41482 15.8399 3.50411 15.896Z" fill="#666666"/>
<path d="M8.34304 15.016C8.33539 15.0288 8.28947 15.0466 8.241 15.0543C8.07008 15.0874 7.83794 15.2277 7.63641 15.4242C7.52417 15.5288 7.43488 15.6283 7.43488 15.6436C7.43488 15.6563 7.39917 15.7201 7.35835 15.7839C7.31754 15.8476 7.28182 15.9216 7.28182 15.9497C7.28182 15.9803 7.27162 16.0135 7.25886 16.0262C7.24611 16.0415 7.22315 16.1436 7.20529 16.2558C7.13641 16.766 7.27927 17.2048 7.63131 17.5594C7.90172 17.8298 8.15172 17.942 8.65427 18.0134C8.77416 18.0313 9.15937 17.9471 9.32263 17.868C9.41447 17.8247 9.49355 17.7788 9.4961 17.7686C9.5012 17.7558 9.51906 17.7481 9.53436 17.7481C9.57773 17.7481 9.81498 17.5237 9.91702 17.3885C10.0089 17.2635 10.0777 17.1282 10.1517 16.9216C10.2129 16.7532 10.2129 16.2252 10.1543 16.0849C10.1313 16.0313 10.1134 15.965 10.1134 15.9369C10.1134 15.9089 10.1032 15.8859 10.0879 15.8859C10.0752 15.8859 10.0624 15.8732 10.0624 15.8578C10.0624 15.8043 9.88896 15.5415 9.78947 15.4471C9.62875 15.289 9.54202 15.2226 9.48334 15.2073C9.45018 15.1971 9.42467 15.1844 9.42467 15.1742C9.42467 15.1487 9.2512 15.0747 9.14916 15.0543C9.10324 15.0441 9.05988 15.0262 9.05222 15.016C9.03437 14.9854 8.3609 14.9854 8.34304 15.016ZM8.94508 15.8527C9.00631 15.8757 9.08284 15.9216 9.11855 15.9548C9.15426 15.9879 9.18998 16.0135 9.20018 16.0135C9.21294 16.0135 9.22059 16.0313 9.22059 16.0517C9.22059 16.0721 9.22824 16.09 9.241 16.09C9.2512 16.09 9.28181 16.1334 9.30988 16.1844C9.35069 16.2584 9.3609 16.3272 9.3609 16.516C9.3609 16.6614 9.34814 16.7635 9.33283 16.7737C9.31753 16.7839 9.29712 16.817 9.28692 16.8476C9.27671 16.8808 9.2563 16.9063 9.24355 16.9063C9.23079 16.9063 9.22059 16.9216 9.22059 16.9369C9.21804 16.9828 9.04712 17.1002 8.91192 17.1461C8.78947 17.1895 8.54457 17.1997 8.52161 17.164C8.51396 17.1538 8.47314 17.1359 8.43233 17.1282C8.3558 17.1129 8.16192 16.942 8.09559 16.8298C8.07264 16.7941 8.04202 16.6997 8.02162 16.6206C7.99355 16.5007 7.99355 16.4548 8.02162 16.3527C8.07008 16.1818 8.16447 16.039 8.30733 15.9242C8.44508 15.8119 8.75886 15.7788 8.94508 15.8527Z" fill="#666666"/>
</svg>
