<svg width="22" height="22" viewBox="0 0 22 22" fill="none" xmlns="http://www.w3.org/2000/svg">
<path d="M20.1663 14.6666V3.66659C20.1663 3.18035 19.9732 2.71404 19.6294 2.37022C19.2856 2.02641 18.8192 1.83325 18.333 1.83325H7.33301C6.84678 1.83325 6.38046 2.02641 6.03664 2.37022C5.69283 2.71404 5.49967 3.18035 5.49967 3.66659V14.6666C5.49967 15.1528 5.69283 15.6191 6.03664 15.9629C6.38046 16.3068 6.84678 16.4999 7.33301 16.4999H18.333C18.8192 16.4999 19.2856 16.3068 19.6294 15.9629C19.9732 15.6191 20.1663 15.1528 20.1663 14.6666ZM10.083 10.9999L11.9438 13.4841L14.6663 10.0833L18.333 14.6666H7.33301M1.83301 5.49992V18.3333C1.83301 18.8195 2.02616 19.2858 2.36998 19.6296C2.7138 19.9734 3.18011 20.1666 3.66634 20.1666H16.4997V18.3333H3.66634V5.49992" fill="#1872F6"/>
</svg>
