<svg width="63" height="62" viewBox="0 0 63 62" fill="none" xmlns="http://www.w3.org/2000/svg">
<circle cx="31.5" cy="31" r="31" fill="#EEF3F4"/>
<path d="M41.3055 29.0415H40.5V29H31.5V33H37.1515C36.327 35.3285 34.1115 37 31.5 37C28.1865 37 25.5 34.3135 25.5 31C25.5 27.6865 28.1865 25 31.5 25C33.0295 25 34.421 25.577 35.4805 26.5195L38.309 23.691C36.523 22.0265 34.134 21 31.5 21C25.9775 21 21.5 25.4775 21.5 31C21.5 36.5225 25.9775 41 31.5 41C37.0225 41 41.5 36.5225 41.5 31C41.5 30.3295 41.431 29.675 41.3055 29.0415Z" fill="#FFC107"/>
<path d="M22.6523 26.3455L25.9378 28.755C26.8268 26.554 28.9798 25 31.4993 25C33.0288 25 34.4203 25.577 35.4798 26.5195L38.3083 23.691C36.5223 22.0265 34.1333 21 31.4993 21C27.6583 21 24.3273 23.1685 22.6523 26.3455Z" fill="#FF3D00"/>
<path d="M31.5002 41.0001C34.0832 41.0001 36.4302 40.0116 38.2047 38.4041L35.1097 35.7851C34.0719 36.5743 32.8039 37.0011 31.5002 37.0001C28.8992 37.0001 26.6907 35.3416 25.8587 33.0271L22.5977 35.5396C24.2527 38.7781 27.6137 41.0001 31.5002 41.0001Z" fill="#4CAF50"/>
<path d="M41.3055 29.0415H40.5V29H31.5V33H37.1515C36.7571 34.1082 36.0467 35.0766 35.108 35.7855L35.1095 35.7845L38.2045 38.4035C37.9855 38.6025 41.5 36 41.5 31C41.5 30.3295 41.431 29.675 41.3055 29.0415Z" fill="#1976D2"/>
</svg>
