<svg width="63" height="62" viewBox="0 0 63 62" fill="none" xmlns="http://www.w3.org/2000/svg">
<circle cx="31.5" cy="31" r="31" fill="black"/>
<g clip-path="url(#clip0_2330_57)">
<path d="M37.4391 31.5953C37.4297 29.875 38.2078 28.5766 39.7828 27.6203C38.9016 26.3594 37.5703 25.6656 35.8125 25.5297C34.1484 25.3984 32.3297 26.5 31.6641 26.5C30.9609 26.5 29.3484 25.5766 28.0828 25.5766C25.4672 25.6188 22.6875 27.6625 22.6875 31.8203C22.6875 33.0484 22.9125 34.3172 23.3625 35.6266C23.9625 37.3469 26.1281 41.5656 28.3875 41.4953C29.5687 41.4672 30.4031 40.6563 31.9406 40.6563C33.4312 40.6563 34.2047 41.4953 35.5219 41.4953C37.8 41.4625 39.7594 37.6281 40.3312 35.9031C37.275 34.4641 37.4391 31.6844 37.4391 31.5953ZM34.7859 23.8984C36.0656 22.3797 35.9484 20.9969 35.9109 20.5C34.7812 20.5656 33.4734 21.2688 32.7281 22.1359C31.9078 23.0641 31.425 24.2125 31.5281 25.5063C32.7516 25.6 33.8672 24.9719 34.7859 23.8984Z" fill="white"/>
</g>
<defs>
<clipPath id="clip0_2330_57">
<rect width="18" height="24" fill="white" transform="translate(22.5 19)"/>
</clipPath>
</defs>
</svg>
