<svg width="63" height="62" viewBox="0 0 63 62" fill="none" xmlns="http://www.w3.org/2000/svg">
<circle cx="31.5" cy="31" r="31" fill="#1872F6"/>
<path d="M34.4101 24.9195H35.8221C36.0043 24.9196 36.1789 24.8422 36.3064 24.7048C36.4339 24.5674 36.5036 24.3816 36.4999 24.1893V21.8048C36.5011 21.4318 36.2307 21.1205 35.8786 21.0894C35.8786 21.0894 34.876 21 33.6476 21C30.6258 21 28.9596 22.8927 28.9596 26.3204V28.9583H26.1779C25.997 28.9542 25.8223 29.0282 25.6944 29.1633C25.5664 29.2983 25.4963 29.4827 25.5002 29.6736V31.8495C25.4963 32.0404 25.5664 32.2248 25.6944 32.3598C25.8223 32.4949 25.997 32.5689 26.1779 32.5648H28.9173V41H33.0404V32.5648H35.5256C35.8668 32.5612 36.1546 32.2954 36.2033 31.9389L36.4575 29.763C36.4834 29.5571 36.4213 29.3496 36.288 29.1967C36.1587 29.0441 35.9737 28.9573 35.7797 28.9583H33.0404V26.4098C33.04 25.6039 33.6468 24.9437 34.4101 24.9195Z" fill="white"/>
</svg>
