<svg width="32" height="32" viewBox="0 0 32 32" fill="none" xmlns="http://www.w3.org/2000/svg">
<circle opacity="0.1" cx="16" cy="16" r="16" fill="#1872F6"/>
<path d="M22 10.75C22 11.9926 19.3137 13 16 13C12.6863 13 10 11.9926 10 10.75M22 10.75C22 9.50736 19.3137 8.5 16 8.5C12.6863 8.5 10 9.50736 10 10.75M22 10.75V21.25C22 22.4926 19.3137 23.5 16 23.5C12.6863 23.5 10 22.4926 10 21.25V10.75M22 14.25C22 15.4926 19.3137 16.5 16 16.5C12.6863 16.5 10 15.4926 10 14.25M22 17.7475C22 18.9901 19.3137 19.9975 16 19.9975C12.6863 19.9975 10 18.9901 10 17.7475" stroke="#1872F6" stroke-width="1.5" stroke-linecap="round" stroke-linejoin="round"/>
</svg>
