<svg width="30" height="30" viewBox="0 0 30 30" fill="none" xmlns="http://www.w3.org/2000/svg">
<path d="M5.28969 12.5924C5.28969 9.82279 2.4299 8.16874 1 7.68791C3.7454 7.45711 5.00371 4.3221 5.28969 2.78345C5.28969 5.55303 8.14949 7.20708 9.57939 7.68791C6.83398 7.91871 5.57567 11.0537 5.28969 12.5924Z" fill="white" stroke="#FBCA00"/>
<path d="M23.1504 14.3758C23.1504 10.5991 19.2507 8.34358 17.3008 7.6879C21.0446 7.37318 22.7605 3.09817 23.1504 1C23.1504 4.7767 27.0501 7.03223 29 7.6879C25.2563 8.00263 23.5404 12.2776 23.1504 14.3758Z" fill="white" stroke="#FBCA00"/>
<path d="M14.727 29C14.727 24.0148 9.57937 21.0375 7.00555 20.172C11.9473 19.7565 14.2122 14.1135 14.727 11.3439C14.727 16.3292 19.8746 19.3065 22.4485 20.172C17.5067 20.5874 15.2418 26.2304 14.727 29Z" fill="white" stroke="#FBCA00"/>
</svg>
