<svg width="11" height="20" viewBox="0 0 11 20" fill="none" xmlns="http://www.w3.org/2000/svg">
<path d="M9.56974 10.3488L9.90905 10.0001L9.56974 9.6514L1.07774 0.924397L1.07776 0.924377L1.07399 0.92058C1.05068 0.897139 1.03226 0.869307 1.01978 0.838696C1.0073 0.808083 1.00102 0.775301 1.00129 0.742249C1.00157 0.709194 1.0084 0.676521 1.02138 0.646122C1.03437 0.615719 1.05325 0.588198 1.07694 0.565147C1.10063 0.542095 1.12866 0.52397 1.1594 0.511822C1.19014 0.499674 1.22299 0.493742 1.25604 0.494371C1.28909 0.494999 1.32169 0.502176 1.35195 0.515488C1.38221 0.528797 1.40952 0.547976 1.43232 0.571913L1.4323 0.571932L1.43603 0.575768L10.436 9.82576C10.436 9.82576 10.436 9.82577 10.436 9.82577C10.4814 9.87244 10.5068 9.93498 10.5068 10.0001C10.5068 10.0652 10.4814 10.1277 10.436 10.1744C10.436 10.1744 10.436 10.1744 10.436 10.1744L1.43603 19.4244L1.43601 19.4244L1.43232 19.4283C1.40952 19.4522 1.38221 19.4714 1.35195 19.4847C1.32169 19.498 1.28909 19.5052 1.25604 19.5058C1.22299 19.5064 1.19014 19.5005 1.1594 19.4884C1.12866 19.4762 1.10063 19.4581 1.07694 19.435C1.05325 19.412 1.03437 19.3845 1.02138 19.3541C1.0084 19.3237 1.00157 19.291 1.00129 19.2579C1.00102 19.2249 1.0073 19.1921 1.01978 19.1615C1.03226 19.1309 1.05068 19.103 1.07399 19.0796L1.07401 19.0796L1.07774 19.0758L9.56974 10.3488Z" fill="black" stroke="black"/>
</svg>
