<svg width="70" height="70" viewBox="0 0 70 70" fill="none" xmlns="http://www.w3.org/2000/svg">
<rect width="70" height="70" rx="10" fill="#1872F6"/>
<path d="M14 18.5403V14C14 13.4477 14.4477 13 15 13H20.4637" stroke="white" stroke-width="2" stroke-linecap="round"/>
<path d="M14 51.7824V56.3228C14 56.875 14.4477 57.3228 15 57.3228H20.4637" stroke="white" stroke-width="2" stroke-linecap="round"/>
<path d="M56.4756 18.5403V14C56.4756 13.4477 56.0279 13 55.4756 13H50.0119" stroke="white" stroke-width="2" stroke-linecap="round"/>
<path d="M56.9375 51.3207V56.3228C56.9375 56.875 56.4898 57.3228 55.9375 57.3228H50.0121" stroke="white" stroke-width="2" stroke-linecap="round"/>
<path d="M47.3964 21.8647H24.2803C23.728 21.8647 23.2803 22.3125 23.2803 22.8647V34.9002C23.2803 35.4525 23.728 35.9002 24.2803 35.9002H47.3964C47.9487 35.9002 48.3964 35.4525 48.3964 34.9002V22.8647C48.3964 22.3125 47.9487 21.8647 47.3964 21.8647Z" fill="url(#paint0_linear_1129_22674)"/>
<path d="M23.2803 35.9002V22.8647C23.2803 22.3125 23.728 21.8647 24.2803 21.8647H47.3964C47.9487 21.8647 48.3964 22.3125 48.3964 22.8647V35.9002" stroke="white" stroke-width="2" stroke-linecap="round"/>
<path opacity="0.3" d="M24.2803 49.9356H47.3964C47.9487 49.9356 48.3964 49.4878 48.3964 48.9356V45.0259C48.3964 44.4736 47.9487 44.0259 47.3964 44.0259H24.2803C23.728 44.0259 23.2803 44.4736 23.2803 45.0259V48.9356C23.2803 49.4878 23.728 49.9356 24.2803 49.9356Z" fill="#1872F6" stroke="white" stroke-width="2" stroke-linecap="round"/>
<line x1="17.9551" y1="43.0259" x2="52.8906" y2="43.0259" stroke="white" stroke-width="2" stroke-linecap="round"/>
<path d="M23.2803 44.0259V48.9356C23.2803 49.4878 23.728 49.9356 24.2803 49.9356H47.3964C47.9487 49.9356 48.3964 49.4878 48.3964 48.9356V44.0259" stroke="white" stroke-width="2" stroke-linecap="round"/>
<defs>
<linearGradient id="paint0_linear_1129_22674" x1="35.8383" y1="21.8647" x2="35.8383" y2="35.9002" gradientUnits="userSpaceOnUse">
<stop stop-color="#D9D9D9"/>
<stop offset="1" stop-color="#D9D9D9" stop-opacity="0"/>
</linearGradient>
</defs>
</svg>
