<svg width="18" height="18" viewBox="0 0 18 18" fill="none" xmlns="http://www.w3.org/2000/svg">
<path fill-rule="evenodd" clip-rule="evenodd" d="M5.84181 11.4532L6.38931 8.89568C6.46902 8.54028 6.64856 8.21503 6.90681 7.95818L11.9093 3.00068C12.4166 2.48391 13.1054 2.18527 13.8293 2.16818C14.3753 2.16036 14.9018 2.37096 15.2918 2.75318C16.144 3.76003 16.0339 5.26359 15.0443 6.13568L10.0418 11.1382C9.78497 11.3964 9.45971 11.576 9.10431 11.6557L6.54681 12.2032H6.40431C6.21734 12.2103 6.03877 12.1253 5.9265 11.9756C5.81424 11.8259 5.78259 11.6307 5.84181 11.4532ZM7.70177 8.76073C7.59668 8.86257 7.52369 8.99292 7.49177 9.13573L7.12427 10.8832L8.87177 10.5082C9.01458 10.4763 9.14493 10.4033 9.24677 10.2982L14.2493 5.29573C14.7973 4.857 14.906 4.06609 14.4968 3.49573C14.3176 3.32451 14.077 3.23261 13.8293 3.24073C13.4022 3.25788 12.9986 3.44083 12.7043 3.75073L7.70177 8.76073Z" fill="#0B1C3F"/>
<path d="M14.9321 8.19766C14.6231 8.2017 14.3736 8.45118 14.3696 8.76016V13.0277C14.3796 13.6309 14.147 14.2128 13.724 14.6429C13.3009 15.073 12.7229 15.3152 12.1196 15.3152H4.97207C3.7251 15.2907 2.72591 14.2749 2.72207 13.0277V5.91016C2.74254 4.66147 3.76072 3.65999 5.00957 3.66016H9.27707C9.58773 3.66016 9.83957 3.40832 9.83957 3.09766C9.83957 2.787 9.58773 2.53516 9.27707 2.53516H4.97207C3.10195 2.53504 1.58012 4.04015 1.55957 5.91016V13.0277C1.55957 14.9123 3.0874 16.4402 4.97207 16.4402H12.0896C13.9713 16.436 15.4946 14.9094 15.4946 13.0277V8.76016C15.4905 8.45118 15.241 8.2017 14.9321 8.19766Z" fill="#0B1C3F"/>
</svg>
