<svg width="48" height="48" viewBox="0 0 48 48" fill="none" xmlns="http://www.w3.org/2000/svg">
<rect width="48" height="48" rx="24" fill="#38DD57"/>
<path d="M32.5038 15.4881C30.2472 13.2399 27.2469 12.0015 24.0501 12C17.4639 12 12.1023 17.3347 12.1002 23.8919C12.099 25.9884 12.6495 28.0344 13.695 29.8371L12 36L18.3345 34.3466C20.0802 35.2933 22.0452 35.7928 24.0453 35.7937H24.0504C30.6366 35.7937 35.9973 30.4581 36 23.9012C36.0015 20.7239 34.7592 17.7359 32.5038 15.4881ZM24.0504 33.785H24.0465C22.2636 33.7844 20.5158 33.3079 18.9906 32.4074L18.6279 32.1931L14.8689 33.1744L15.8718 29.5272L15.6357 29.1522C14.6412 27.5788 14.1159 25.7603 14.1171 23.8919C14.1189 18.4423 18.5748 14.0084 24.0534 14.0084C26.7066 14.009 29.1999 15.0387 31.0755 16.9074C32.9508 18.7758 33.9828 21.2589 33.9822 23.9003C33.9804 29.3508 29.5245 33.785 24.0504 33.785ZM29.4984 26.3822C29.1996 26.2332 27.7317 25.5152 27.4578 25.4152C27.1839 25.316 26.9856 25.2668 26.7864 25.5642C26.5872 25.8615 26.0151 26.5312 25.8405 26.7294C25.6665 26.9277 25.4925 26.9528 25.1937 26.8038C24.8949 26.6548 23.9331 26.3413 22.7934 25.3286C21.9054 24.5413 21.306 23.5674 21.132 23.27C20.958 22.9727 21.1134 22.8123 21.2631 22.6639C21.3975 22.5308 21.5619 22.317 21.711 22.1433C21.8601 21.9695 21.9099 21.8456 22.0095 21.6476C22.1091 21.4494 22.0596 21.2759 21.9846 21.1273C21.9096 20.9783 21.3126 19.5156 21.0642 18.9206C20.8215 18.3411 20.5755 18.4196 20.3925 18.4107C20.2179 18.4023 20.019 18.3999 19.8201 18.3999C19.6212 18.3999 19.2975 18.4743 19.0239 18.7719C18.7506 19.0693 17.979 19.7879 17.979 21.2512C17.979 22.7135 19.0488 24.1269 19.1982 24.3248C19.3476 24.5228 21.3036 27.5248 24.2988 28.8119C25.011 29.1176 25.5675 29.3006 26.001 29.438C26.7162 29.6646 27.3672 29.632 27.882 29.5556C28.4556 29.4705 29.6484 28.837 29.8977 28.1428C30.1464 27.449 30.1464 26.8542 30.0711 26.73C29.9958 26.6055 29.7966 26.5312 29.4984 26.3822Z" fill="white"/>
</svg>
