<svg width="19" height="19" viewBox="0 0 19 19" fill="none" xmlns="http://www.w3.org/2000/svg">
<path d="M9.5 0C4.25325 0 0 4.25325 0 9.5C0 14.7467 4.25325 19 9.5 19C14.7467 19 19 14.7467 19 9.5C19 4.25325 14.7467 0 9.5 0Z" fill="#40B3E0"/>
<path d="M14.1229 5.46569L12.4261 14.0207C12.4261 14.0207 12.1889 14.614 11.5362 14.3292L7.62061 11.3272L6.1968 10.639L3.79998 9.83213C3.79998 9.83213 3.43215 9.70165 3.39653 9.41687C3.36098 9.1321 3.81186 8.97787 3.81186 8.97787L13.3398 5.24021C13.3398 5.24021 14.1229 4.89614 14.1229 5.46569Z" fill="white"/>
<path d="M7.31914 13.9243C7.31914 13.9243 7.20485 13.9136 7.06242 13.4627C6.92007 13.0118 6.19629 10.6387 6.19629 10.6387L11.951 6.98419C11.951 6.98419 12.2833 6.78246 12.2714 6.98419C12.2714 6.98419 12.3307 7.01974 12.1527 7.18584C11.9747 7.35202 7.63198 11.2557 7.63198 11.2557" fill="#D2E5F1"/>
<path d="M9.12069 12.4764L7.57189 13.8885C7.57189 13.8885 7.45084 13.9804 7.31836 13.9228L7.61494 11.2998" fill="#B5CFE4"/>
</svg>
