<svg width="20" height="20" viewBox="0 0 20 20" fill="none" xmlns="http://www.w3.org/2000/svg">
<rect width="20" height="20" rx="10" fill="#38DD57"/>
<path d="M13.5432 6.45336C12.603 5.51663 11.3529 5.00062 10.0209 5C7.27662 5 5.04262 7.22278 5.04175 9.95497C5.04125 10.8285 5.27062 11.681 5.70625 12.4321L5 15L7.63937 14.3111C8.36675 14.7055 9.1855 14.9137 10.0189 14.914H10.021C12.7652 14.914 14.9989 12.6909 15 9.95882C15.0006 8.63496 14.483 7.38997 13.5432 6.45336ZM10.021 14.0771H10.0194C9.2765 14.0768 8.54825 13.8783 7.91275 13.5031L7.76162 13.4138L6.19537 13.8227L6.61325 12.303L6.51487 12.1468C6.1005 11.4912 5.88162 10.7335 5.88212 9.95497C5.88287 7.6843 7.7395 5.83684 10.0222 5.83684C11.1277 5.83709 12.1666 6.26614 12.9481 7.04476C13.7295 7.82325 14.1595 8.85789 14.1592 9.95845C14.1585 12.2295 12.3019 14.0771 10.021 14.0771ZM12.291 10.9926C12.1665 10.9305 11.5549 10.6313 11.4407 10.5897C11.3266 10.5484 11.244 10.5278 11.161 10.6517C11.078 10.7756 10.8396 11.0547 10.7669 11.1373C10.6944 11.2199 10.6219 11.2303 10.4974 11.1682C10.3729 11.1062 9.97212 10.9755 9.49725 10.5536C9.12725 10.2255 8.8775 9.81974 8.805 9.69584C8.7325 9.57194 8.79725 9.50514 8.85962 9.44331C8.91562 9.38783 8.98412 9.29876 9.04625 9.22636C9.10837 9.15396 9.12912 9.10233 9.17062 9.01985C9.21212 8.93725 9.1915 8.86498 9.16025 8.80303C9.129 8.74095 8.88025 8.13152 8.77675 7.88359C8.67562 7.64213 8.57312 7.67484 8.49687 7.67111C8.42412 7.66763 8.34125 7.66663 8.25837 7.66663C8.1755 7.66663 8.04062 7.69761 7.92662 7.82164C7.81275 7.94554 7.49125 8.24497 7.49125 8.85465C7.49125 9.46396 7.937 10.0529 7.99925 10.1353C8.0615 10.2178 8.8765 11.4687 10.1245 12.005C10.4212 12.1323 10.6531 12.2086 10.8337 12.2658C11.1317 12.3602 11.403 12.3467 11.6175 12.3148C11.8565 12.2794 12.3535 12.0154 12.4574 11.7262C12.561 11.4371 12.561 11.1893 12.5296 11.1375C12.4982 11.0856 12.4152 11.0547 12.291 10.9926Z" fill="white"/>
</svg>
