<svg width="20" height="19" viewBox="0 0 20 19" fill="none" xmlns="http://www.w3.org/2000/svg">
<path d="M10 0C4.64907 0 0.5 3.91909 0.5 9.21769C0.5 11.9872 1.63394 14.3804 3.47855 16.0317C3.5565 16.1 3.61984 16.1833 3.66474 16.2767C3.70964 16.3701 3.73518 16.4716 3.73982 16.5751L3.79208 18.2629C3.79629 18.3872 3.83082 18.5086 3.89264 18.6164C3.95447 18.7243 4.04172 18.8154 4.14681 18.8819C4.2519 18.9483 4.37164 18.9881 4.49561 18.9977C4.61958 19.0073 4.74401 18.9865 4.85809 18.937L6.73927 18.101C6.90052 18.0295 7.08162 18.0166 7.25138 18.0644C8.147 18.3092 9.07152 18.4322 10 18.4302C15.3509 18.4302 19.5 14.5111 19.5 9.21769C19.5 3.92431 15.3509 0 10 0Z" fill="url(#paint0_linear_767_2400)"/>
<path d="M4.2944 11.91L7.08483 7.48401C7.18984 7.31703 7.32834 7.17364 7.49157 7.0629C7.65481 6.95215 7.83924 6.87647 8.03322 6.84062C8.22719 6.80477 8.42649 6.80954 8.61853 6.85463C8.81056 6.89971 8.99116 6.98413 9.14891 7.10255L11.3698 8.76947C11.4683 8.84165 11.5873 8.88056 11.7094 8.88056C11.8316 8.88056 11.9505 8.84165 12.0491 8.76947L15.0538 6.49118C15.4509 6.1881 15.9734 6.66884 15.7069 7.0921L12.9165 11.5181C12.8115 11.6843 12.6732 11.827 12.5104 11.9372C12.3476 12.0475 12.1638 12.1229 11.9704 12.1587C11.7771 12.1945 11.5785 12.19 11.387 12.1454C11.1955 12.1008 11.0153 12.0171 10.8577 11.8995L8.63681 10.2326C8.53732 10.158 8.4163 10.1176 8.29193 10.1176C8.16756 10.1176 8.04654 10.158 7.94704 10.2326L4.94759 12.5109C4.55045 12.814 4.0279 12.3332 4.2944 11.91Z" fill="white"/>
<defs>
<linearGradient id="paint0_linear_767_2400" x1="3.27083" y1="19.7917" x2="18.5104" y2="1.97917" gradientUnits="userSpaceOnUse">
<stop stop-color="#1E84FF"/>
<stop offset="1" stop-color="#F95687"/>
</linearGradient>
</defs>
</svg>
