<svg width="48" height="48" viewBox="0 0 48 48" fill="none" xmlns="http://www.w3.org/2000/svg">
<path d="M24 0C10.7451 0 0 10.7451 0 24C0 37.2549 10.7451 48 24 48C37.2549 48 48 37.2549 48 24C48 10.7451 37.2549 0 24 0Z" fill="#40B3E0"/>
<path d="M35.6775 13.8064L31.3909 35.419C31.3909 35.419 30.7915 36.9179 29.1428 36.1984L19.2506 28.6144L15.6536 26.8759L9.59851 24.8374C9.59851 24.8374 8.66926 24.5078 8.57926 23.7884C8.48945 23.0689 9.62851 22.6793 9.62851 22.6793L33.699 13.2368C33.699 13.2368 35.6775 12.3675 35.6775 13.8064Z" fill="white"/>
<path d="M18.491 35.1755C18.491 35.1755 18.2022 35.1485 17.8424 34.0092C17.4828 32.8701 15.6543 26.875 15.6543 26.875L30.1925 17.6425C30.1925 17.6425 31.0319 17.1329 31.0019 17.6425C31.0019 17.6425 31.1517 17.7323 30.7021 18.152C30.2525 18.5718 19.2813 28.4337 19.2813 28.4337" fill="#D2E5F1"/>
<path d="M23.0435 31.5213L19.1307 35.0886C19.1307 35.0886 18.8249 35.3208 18.4902 35.1753L19.2395 28.5488" fill="#B5CFE4"/>
</svg>
