<svg width="48" height="48" viewBox="0 0 48 48" fill="none" xmlns="http://www.w3.org/2000/svg">
<path d="M24 0C10.4818 0 0 9.90085 0 23.2868C0 30.2834 2.86469 36.3295 7.52475 40.5011C7.7217 40.6736 7.8817 40.8841 7.99514 41.1201C8.10857 41.356 8.1731 41.6125 8.18482 41.874L8.31683 46.138C8.32748 46.4519 8.41469 46.7585 8.57089 47.031C8.72708 47.3035 8.94751 47.5338 9.213 47.7016C9.47849 47.8695 9.78099 47.97 10.0942 47.9942C10.4073 48.0185 10.7217 47.9659 11.0099 47.8409L15.7624 45.7287C16.1697 45.5483 16.6273 45.5156 17.0561 45.6363C19.3187 46.2548 21.6544 46.5657 24 46.5604C37.5182 46.5604 48 36.6595 48 23.2868C48 9.91405 37.5182 0 24 0Z" fill="url(#paint0_linear_767_2360)"/>
<path d="M9.58411 30.0863L16.6336 18.9049C16.8989 18.4831 17.2488 18.1208 17.6612 17.841C18.0736 17.5613 18.5395 17.3701 19.0295 17.2795C19.5196 17.189 20.0231 17.201 20.5082 17.3149C20.9934 17.4288 21.4496 17.6421 21.8481 17.9412L27.4587 22.1524C27.7076 22.3347 28.0082 22.433 28.3168 22.433C28.6254 22.433 28.9259 22.3347 29.1749 22.1524L36.7656 16.3967C37.7689 15.631 39.0891 16.8455 38.4158 17.9148L31.3663 29.0962C31.1009 29.5161 30.7517 29.8766 30.3404 30.1551C29.9291 30.4336 29.4646 30.6241 28.9762 30.7146C28.4878 30.8051 27.986 30.7936 27.5022 30.681C27.0184 30.5683 26.5631 30.3568 26.165 30.0599L20.5544 25.8487C20.3031 25.6602 19.9973 25.5583 19.6831 25.5583C19.3689 25.5583 19.0632 25.6602 18.8118 25.8487L11.2343 31.6044C10.231 32.3701 8.91085 31.1556 9.58411 30.0863Z" fill="white"/>
<defs>
<linearGradient id="paint0_linear_767_2360" x1="7" y1="50" x2="45.5" y2="5" gradientUnits="userSpaceOnUse">
<stop stop-color="#1E84FF"/>
<stop offset="1" stop-color="#F95687"/>
</linearGradient>
</defs>
</svg>
