<svg width="40" height="40" viewBox="0 0 40 40" fill="none" xmlns="http://www.w3.org/2000/svg">
<g clip-path="url(#clip0_3062_2570)">
<path d="M20 39.5C30.7696 39.5 39.5 30.7696 39.5 20C39.5 9.23045 30.7696 0.5 20 0.5C9.23045 0.5 0.5 9.23045 0.5 20C0.5 30.7696 9.23045 39.5 20 39.5Z" fill="white" stroke="#E3E3E3"/>
<mask id="mask0_3062_2570" style="mask-type:luminance" maskUnits="userSpaceOnUse" x="9" y="12" width="15" height="16">
<path d="M9 12V28H23.6667V12H9Z" fill="white"/>
</mask>
<g mask="url(#mask0_3062_2570)">
<path d="M16.3327 25.3332V14.6665M16.3327 14.6665L12.666 18.6665M16.3327 14.6665L19.9993 18.6665" stroke="#C0CCDF" stroke-width="2" stroke-linecap="round" stroke-linejoin="round"/>
</g>
<mask id="mask1_3062_2570" style="mask-type:luminance" maskUnits="userSpaceOnUse" x="16" y="12" width="15" height="16">
<path d="M31 28V12H16.3333V28H31Z" fill="white"/>
</mask>
<g mask="url(#mask1_3062_2570)">
<path d="M23.6666 14.6667V25.3334M23.6666 25.3334L27.3333 21.3334M23.6666 25.3334L20 21.3334" stroke="#C0CCDF" stroke-width="2" stroke-linecap="round" stroke-linejoin="round"/>
</g>
</g>
<defs>
<clipPath id="clip0_3062_2570">
<rect width="40" height="40" fill="white"/>
</clipPath>
</defs>
</svg>
