<svg width="18" height="18" viewBox="0 0 18 18" fill="none" xmlns="http://www.w3.org/2000/svg">
<path d="M10.8299 3.40257L11.3249 4.90257C11.5486 5.59683 12.193 6.06881 12.9224 6.07257H14.4824C15.2141 6.06792 15.8646 6.5373 16.0908 7.23309C16.317 7.92888 16.0669 8.69107 15.4724 9.11757L14.1899 10.0476C13.5996 10.4762 13.3515 11.2356 13.5749 11.9301L14.0699 13.4301C14.3148 14.1269 14.0758 14.9019 13.481 15.3398C12.8862 15.7777 12.0751 15.7758 11.4824 15.3351L10.2224 14.3976C9.6318 13.9697 8.8331 13.9697 8.24245 14.3976L6.98245 15.3351C6.39305 15.7664 5.59247 15.7676 5.00184 15.3379C4.41122 14.9082 4.16591 14.1461 4.39495 13.4526L4.88995 11.9526C5.11342 11.2581 4.86531 10.4987 4.27495 10.0701L2.96245 9.12507C2.35592 8.69769 2.10158 7.92304 2.33673 7.21931C2.57188 6.51559 3.24083 6.04946 3.98245 6.07257H5.54245C6.26785 6.07094 6.91104 5.6059 7.13995 4.91757L7.63495 3.41757C7.85685 2.72472 8.49949 2.25343 9.227 2.25002C9.95451 2.2466 10.6015 2.71184 10.8299 3.40257Z" fill="#FE7B1E"/>
</svg>
