<svg width="188" height="55" viewBox="0 0 188 55" fill="none" xmlns="http://www.w3.org/2000/svg">
<path d="M73.784 25.56C73.4293 24.9067 72.916 24.412 72.244 24.076C71.5907 23.7213 70.816 23.544 69.92 23.544C68.3707 23.544 67.1293 24.0573 66.196 25.084C65.2627 26.092 64.796 27.4453 64.796 29.144C64.796 30.9547 65.2813 32.3733 66.252 33.4C67.2413 34.408 68.5947 34.912 70.312 34.912C71.488 34.912 72.4773 34.6133 73.28 34.016C74.1013 33.4187 74.6987 32.56 75.072 31.44H68.996V27.912H79.412V32.364C79.0573 33.5587 78.4507 34.6693 77.592 35.696C76.752 36.7227 75.6787 37.5533 74.372 38.188C73.0653 38.8227 71.5907 39.14 69.948 39.14C68.0067 39.14 66.2707 38.72 64.74 37.88C63.228 37.0213 62.0427 35.836 61.184 34.324C60.344 32.812 59.924 31.0853 59.924 29.144C59.924 27.2027 60.344 25.476 61.184 23.964C62.0427 22.4333 63.228 21.248 64.74 20.408C66.252 19.5493 67.9787 19.12 69.92 19.12C72.272 19.12 74.2507 19.6893 75.856 20.828C77.48 21.9667 78.5533 23.544 79.076 25.56H73.784ZM86.8521 18.28V39H82.0641V18.28H86.8521ZM97.4339 39.224C95.9033 39.224 94.5219 38.8973 93.2899 38.244C92.0766 37.5907 91.1153 36.6573 90.4059 35.444C89.7153 34.2307 89.3699 32.812 89.3699 31.188C89.3699 29.5827 89.7246 28.1733 90.4339 26.96C91.1433 25.728 92.1139 24.7853 93.3459 24.132C94.5779 23.4787 95.9593 23.152 97.4899 23.152C99.0206 23.152 100.402 23.4787 101.634 24.132C102.866 24.7853 103.837 25.728 104.546 26.96C105.255 28.1733 105.61 29.5827 105.61 31.188C105.61 32.7933 105.246 34.212 104.518 35.444C103.809 36.6573 102.829 37.5907 101.578 38.244C100.346 38.8973 98.9646 39.224 97.4339 39.224ZM97.4339 35.08C98.3486 35.08 99.1233 34.744 99.7579 34.072C100.411 33.4 100.738 32.4387 100.738 31.188C100.738 29.9373 100.421 28.976 99.7859 28.304C99.1699 27.632 98.4046 27.296 97.4899 27.296C96.5566 27.296 95.7819 27.632 95.1659 28.304C94.5499 28.9573 94.2419 29.9187 94.2419 31.188C94.2419 32.4387 94.5406 33.4 95.1379 34.072C95.7539 34.744 96.5193 35.08 97.4339 35.08ZM112.938 25.588C113.386 24.86 114.03 24.272 114.87 23.824C115.71 23.376 116.671 23.152 117.754 23.152C119.042 23.152 120.209 23.4787 121.254 24.132C122.299 24.7853 123.121 25.7187 123.718 26.932C124.334 28.1453 124.642 29.5547 124.642 31.16C124.642 32.7653 124.334 34.184 123.718 35.416C123.121 36.6293 122.299 37.572 121.254 38.244C120.209 38.8973 119.042 39.224 117.754 39.224C116.653 39.224 115.691 39.0093 114.87 38.58C114.049 38.132 113.405 37.544 112.938 36.816V39H108.15V18.28H112.938V25.588ZM119.77 31.16C119.77 29.9653 119.434 29.032 118.762 28.36C118.109 27.6693 117.297 27.324 116.326 27.324C115.374 27.324 114.562 27.6693 113.89 28.36C113.237 29.0507 112.91 29.9933 112.91 31.188C112.91 32.3827 113.237 33.3253 113.89 34.016C114.562 34.7067 115.374 35.052 116.326 35.052C117.278 35.052 118.09 34.7067 118.762 34.016C119.434 33.3067 119.77 32.3547 119.77 31.16ZM129.562 21.752C128.722 21.752 128.031 21.5093 127.49 21.024C126.967 20.52 126.706 19.904 126.706 19.176C126.706 18.4293 126.967 17.8133 127.49 17.328C128.031 16.824 128.722 16.572 129.562 16.572C130.383 16.572 131.055 16.824 131.578 17.328C132.119 17.8133 132.39 18.4293 132.39 19.176C132.39 19.904 132.119 20.52 131.578 21.024C131.055 21.5093 130.383 21.752 129.562 21.752ZM131.942 23.376V39H127.154V23.376H131.942ZM144.932 23.208C146.761 23.208 148.217 23.8053 149.3 25C150.401 26.176 150.952 27.8 150.952 29.872V39H146.192V30.516C146.192 29.4707 145.921 28.6587 145.38 28.08C144.838 27.5013 144.11 27.212 143.196 27.212C142.281 27.212 141.553 27.5013 141.012 28.08C140.47 28.6587 140.2 29.4707 140.2 30.516V39H135.412V23.376H140.2V25.448C140.685 24.7573 141.338 24.216 142.16 23.824C142.981 23.4133 143.905 23.208 144.932 23.208ZM160.215 23.152C161.316 23.152 162.278 23.376 163.099 23.824C163.939 24.272 164.583 24.86 165.031 25.588V23.376H169.819V38.972C169.819 40.4093 169.53 41.7067 168.951 42.864C168.391 44.04 167.523 44.9733 166.347 45.664C165.19 46.3547 163.743 46.7 162.007 46.7C159.692 46.7 157.816 46.1493 156.379 45.048C154.942 43.9653 154.12 42.4907 153.915 40.624H158.647C158.796 41.2213 159.151 41.688 159.711 42.024C160.271 42.3787 160.962 42.556 161.783 42.556C162.772 42.556 163.556 42.2667 164.135 41.688C164.732 41.128 165.031 40.2227 165.031 38.972V36.76C164.564 37.488 163.92 38.0853 163.099 38.552C162.278 39 161.316 39.224 160.215 39.224C158.927 39.224 157.76 38.8973 156.715 38.244C155.67 37.572 154.839 36.6293 154.223 35.416C153.626 34.184 153.327 32.7653 153.327 31.16C153.327 29.5547 153.626 28.1453 154.223 26.932C154.839 25.7187 155.67 24.7853 156.715 24.132C157.76 23.4787 158.927 23.152 160.215 23.152ZM165.031 31.188C165.031 29.9933 164.695 29.0507 164.023 28.36C163.37 27.6693 162.567 27.324 161.615 27.324C160.663 27.324 159.851 27.6693 159.179 28.36C158.526 29.032 158.199 29.9653 158.199 31.16C158.199 32.3547 158.526 33.3067 159.179 34.016C159.851 34.7067 160.663 35.052 161.615 35.052C162.567 35.052 163.37 34.7067 164.023 34.016C164.695 33.3253 165.031 32.3827 165.031 31.188ZM179.639 39.224C178.276 39.224 177.063 38.9907 175.999 38.524C174.935 38.0573 174.095 37.4227 173.479 36.62C172.863 35.7987 172.518 34.884 172.443 33.876H177.175C177.231 34.4173 177.483 34.856 177.931 35.192C178.379 35.528 178.93 35.696 179.583 35.696C180.18 35.696 180.638 35.584 180.955 35.36C181.291 35.1173 181.459 34.8093 181.459 34.436C181.459 33.988 181.226 33.6613 180.759 33.456C180.292 33.232 179.536 32.9893 178.491 32.728C177.371 32.4667 176.438 32.196 175.691 31.916C174.944 31.6173 174.3 31.16 173.759 30.544C173.218 29.9093 172.947 29.06 172.947 27.996C172.947 27.1 173.19 26.288 173.675 25.56C174.179 24.8133 174.907 24.2253 175.859 23.796C176.83 23.3667 177.978 23.152 179.303 23.152C181.263 23.152 182.803 23.6373 183.923 24.608C185.062 25.5787 185.715 26.8667 185.883 28.472H181.459C181.384 27.9307 181.142 27.5013 180.731 27.184C180.339 26.8667 179.816 26.708 179.163 26.708C178.603 26.708 178.174 26.82 177.875 27.044C177.576 27.2493 177.427 27.5387 177.427 27.912C177.427 28.36 177.66 28.696 178.127 28.92C178.612 29.144 179.359 29.368 180.367 29.592C181.524 29.8907 182.467 30.1893 183.195 30.488C183.923 30.768 184.558 31.2347 185.099 31.888C185.659 32.5227 185.948 33.3813 185.967 34.464C185.967 35.3787 185.706 36.2 185.183 36.928C184.679 37.6373 183.942 38.1973 182.971 38.608C182.019 39.0187 180.908 39.224 179.639 39.224Z" fill="white"/>
<path d="M27.3523 1.5685C25.9139 0.672453 24.0861 0.672453 22.6477 1.5685C17.7869 4.59646 12.4156 6.51957 5.13599 5.64499C2.51711 5.33035 0.0550953 7.22747 0.273135 9.85616C0.739135 15.4743 1.9993 24.6654 5.40541 32.563C9.88642 42.9529 17.1246 49.4737 21.4367 52.6583C23.5846 54.2446 26.4154 54.2446 28.5633 52.6583C32.8754 49.4737 40.1136 42.9529 44.5946 32.563C48.0007 24.6654 49.2609 15.4743 49.7269 9.85616C49.9449 7.22747 47.4829 5.33035 44.864 5.64499C37.5844 6.51957 32.2131 4.59646 27.3523 1.5685Z" fill="url(#paint0_linear_2928_2484)"/>
<path d="M25.0004 3.5791C18.4815 7.91062 11.4251 10.7571 0.134766 7.91062C0.134766 7.91062 0.20197 22.4522 5.51111 34.0235C10.0134 43.8363 17.3141 49.9578 21.5863 52.9014C23.6675 54.3354 26.3332 54.3354 28.4145 52.9014C32.6866 49.9578 39.9873 43.8363 44.4896 34.0235C49.7987 22.4522 49.8659 7.91062 49.8659 7.91062C38.5756 10.7571 31.5192 7.91062 25.0004 3.5791Z" fill="#1872F6"/>
<path d="M33.5754 31.2437C33.5754 31.8435 33.4674 32.2885 33.2516 32.5788C33.0357 32.869 32.6923 33.1496 32.2213 33.4205C31.9466 33.5753 31.6032 33.7301 31.1911 33.8849C30.779 34.0203 30.3277 34.1364 29.8371 34.2331C29.3465 34.3492 28.8264 34.4363 28.277 34.4944C27.7471 34.5524 27.2173 34.5814 26.6875 34.5814C25.2746 34.5814 23.95 34.3976 22.7137 34.03C21.4774 33.643 20.3981 33.0722 19.4758 32.3176C18.5731 31.5436 17.8568 30.5858 17.327 29.4442C16.7971 28.3026 16.5322 26.9772 16.5322 25.4679C16.5322 23.8813 16.8168 22.4978 17.3859 21.3175C17.9746 20.1372 18.7399 19.1601 19.6818 18.3861C20.6434 17.5928 21.7325 17.0026 22.9492 16.6156C24.1855 16.2286 25.4512 16.0352 26.7463 16.0352C28.6106 16.0352 30.0824 16.3351 31.1617 16.9349C32.2606 17.5154 32.8101 18.2797 32.8101 19.2278C32.8101 19.7309 32.6825 20.1662 32.4274 20.5339V20.5339C31.9908 21.163 31.1317 21.1494 30.4265 20.8511C30.1966 20.7538 29.9511 20.6578 29.6899 20.5629C28.9638 20.2726 28.1396 20.1275 27.2173 20.1275C25.5689 20.1275 24.2541 20.5919 23.273 21.5207C22.3114 22.4494 21.8306 23.7362 21.8306 25.3809C21.8306 26.2709 21.9582 27.0449 22.2133 27.7028C22.488 28.3413 22.851 28.8734 23.3024 29.2991C23.7537 29.7054 24.2738 30.015 24.8625 30.2278C25.4512 30.4213 26.0791 30.5181 26.7463 30.5181C27.1781 30.5181 27.5607 30.4794 27.8943 30.402V30.402C28.3815 30.289 28.6596 29.8299 28.6596 29.3298V28.169C28.6596 27.7512 28.321 27.4125 27.9032 27.4125H26.424C25.8601 27.4125 25.3374 27.1051 25.1568 26.5708V26.5708C25.0587 26.2225 25.0096 25.8549 25.0096 25.4679C25.0096 24.7714 25.1666 24.2683 25.4806 23.9587C25.8142 23.6491 26.2361 23.4943 26.7463 23.4943H31.7209C32.3096 23.4943 32.761 23.6588 33.075 23.9877C33.4086 24.2973 33.5754 24.7423 33.5754 25.3228V31.2437Z" fill="white"/>
<defs>
<linearGradient id="paint0_linear_2928_2484" x1="25" y1="0" x2="25" y2="12.8553" gradientUnits="userSpaceOnUse">
<stop stop-color="#C0D5F3"/>
<stop offset="1" stop-color="#C0D5F3" stop-opacity="0"/>
</linearGradient>
</defs>
</svg>
